<?xml version="1.0"?>
<svg xmlns="http://www.w3.org/2000/svg" xmlns:xlink="http://www.w3.org/1999/xlink" version="1.1" x="0px" y="0px" viewBox="0 0 100 125" enable-background="new 0 0 100 100" xml:space="preserve">
  <path d="M81.586,82.68c0,4.439,0,8.786,0,13.197c-21.063,0-42.089,0-63.173,0c0-4.396,0-8.767,0-13.197  C39.467,82.68,60.468,82.68,81.586,82.68z"/>
  <path d="M77.454,70.048c0,3.234,0,6.432,0,9.694c-18.31,0-36.577,0-54.905,0c0-3.217,0-6.414,0-9.694  C40.802,70.048,59.07,70.048,77.454,70.048z"/>
  <path d="M45.153,12.263c1.673-0.25,3.251-0.517,4.839-0.697c0.343-0.039,0.798,0.148,1.071,0.382  c1.139,0.98,2.244,2.003,3.326,3.046c0.247,0.238,0.503,0.622,0.503,0.94c0.023,16.913,0.019,33.826,0.016,50.739  c0,0.097-0.026,0.193-0.053,0.382c-3.209,0-6.427,0-9.702,0C45.153,48.778,45.153,30.506,45.153,12.263z"/>
  <path d="M35.123,10.016c2.422,0.73,4.695,1.415,7.114,2.144c0.008,0.167,0.04,0.515,0.04,0.862  c0.002,17.664-0.004,35.329,0.021,52.993c0.001,0.89-0.213,1.198-1.137,1.156c-1.668-0.075-3.343-0.063-5.013-0.004  c-0.824,0.029-1.047-0.236-1.044-1.049c0.028-7.8,0.017-15.6,0.017-23.399c0-10.553,0.001-21.105,0.002-31.658  C35.123,10.709,35.123,10.358,35.123,10.016z"/>
  <path d="M57.788,17.165c2.296,0.529,4.576,1.055,6.962,1.605c0,15.98,0,32.122,0,48.322c-2.322,0-4.603,0-6.962,0  C57.788,50.419,57.788,33.778,57.788,17.165z"/>
  <path d="M27.804,4.123c1.395,1.247,2.768,2.457,4.112,3.697c0.211,0.195,0.348,0.514,0.422,0.801  c0.071,0.277,0.017,0.586,0.017,0.881c0,18.755,0,37.51,0,56.265c0,0.419,0,0.839,0,1.32c-1.559,0-3.018,0-4.552,0  C27.804,46.066,27.804,25.075,27.804,4.123z"/>
  <path d="M72.193,67.147c-1.384,0-2.691,0.029-3.995-0.03c-0.211-0.01-0.445-0.388-0.59-0.64c-0.085-0.148-0.017-0.385-0.017-0.581  c0-15.445,0-30.891,0-46.336c0-0.357,0-0.713,0-1.032c1.573-0.393,3.058-0.765,4.601-1.151  C72.193,33.926,72.193,50.466,72.193,67.147z"/>
</svg>
