<?xml version="1.0"?>
<svg xmlns="http://www.w3.org/2000/svg" xmlns:xlink="http://www.w3.org/1999/xlink" version="1.1" x="0px" y="0px" viewBox="0 0 100 125" style="enable-background:new 0 0 100 100;" xml:space="preserve">
  <style type="text/css">
	.st0{fill:#010101;}
</style>
  <path class="st0" d="M49.9,4.8c-7.9,0-15.4,2.1-21.8,5.7L35.9,24c4.2-2.3,8.9-3.7,14.1-3.7c5.1,0,9.9,1.4,14.1,3.7l7.8-13.5  C65.3,6.9,57.8,4.8,49.9,4.8z"/>
  <path class="st0" d="M72.9,11.1l-7.8,13.5c8.4,5.1,14.1,14.3,14.1,24.8h15.6C94.7,33.1,86,18.9,72.9,11.1z"/>
  <path class="st0" d="M72.9,88.9c13.1-7.8,21.8-22,21.9-38.3H79.2c0,10.5-5.7,19.7-14.1,24.8"/>
  <path class="st0" d="M50.1,95.2c7.9,0,15.4-2.1,21.8-5.7L64.1,76c-4.2,2.3-8.9,3.7-14.1,3.7c-5.1,0-9.9-1.4-14.1-3.7l-7.8,13.5  C34.7,93.1,42.2,95.2,50.1,95.2z"/>
  <path class="st0" d="M27.1,11.1C14,18.9,5.3,33.1,5.2,49.4h15.6c0-10.5,5.7-19.7,14.1-24.8"/>
  <path class="st0" d="M27.1,88.9l7.8-13.5c-8.4-5.1-14.1-14.3-14.1-24.8H5.2C5.3,66.9,14,81.1,27.1,88.9z"/>
  <circle class="st0" cx="50" cy="49.5" r="2.8"/>
  <polyline class="st0" points="48.6,50.2 50,25.9 51.4,50.2 "/>
  <rect x="22" y="49.8" class="st0" width="2.2" height="0.5"/>
  <rect x="22.9" y="56.8" transform="matrix(-0.9659 0.2588 -0.2588 -0.9659 61.9348 105.8813)" class="st0" width="2.2" height="0.5"/>
  <rect x="25.6" y="63.3" transform="matrix(-0.866 0.5 -0.5 -0.866 81.5575 105.1664)" class="st0" width="2.2" height="0.5"/>
  <rect x="29.9" y="68.8" transform="matrix(-0.7071 0.7071 -0.7071 -0.7071 101.7177 96.0355)" class="st0" width="2.2" height="0.5"/>
  <rect x="35.5" y="73.1" transform="matrix(-0.5 0.866 -0.866 -0.5 118.3518 78.3913)" class="st0" width="2.2" height="0.5"/>
  <rect x="42" y="75.8" transform="matrix(-0.2588 0.9659 -0.9659 -0.2588 127.6368 54.1575)" class="st0" width="2.2" height="0.5"/>
  <rect x="49.8" y="75.9" class="st0" width="0.5" height="2.2"/>
  <rect x="55.9" y="75.8" transform="matrix(0.2588 0.9659 -0.9659 0.2588 115.6824 1.3279)" class="st0" width="2.2" height="0.5"/>
  <rect x="62.4" y="73.1" transform="matrix(0.5 0.866 -0.866 0.5 95.2592 -18.2888)" class="st0" width="2.2" height="0.5"/>
  <rect x="68" y="68.8" transform="matrix(0.7071 0.7071 -0.7071 0.7071 69.0637 -28.5896)" class="st0" width="2.2" height="0.5"/>
  <rect x="72.2" y="63.2" transform="matrix(0.866 0.5 -0.5 0.866 41.5706 -28.1528)" class="st0" width="2.2" height="0.5"/>
  <rect x="74.9" y="56.8" transform="matrix(0.9659 0.2588 -0.2588 0.9659 17.3429 -17.7297)" class="st0" width="2.2" height="0.5"/>
  <rect x="75.8" y="49.8" class="st0" width="2.2" height="0.5"/>
  <rect x="74.9" y="42.8" transform="matrix(0.9659 -0.2588 0.2588 0.9659 -8.5565 21.1383)" class="st0" width="2.2" height="0.5"/>
  <rect x="72.2" y="36.3" transform="matrix(0.866 -0.5 0.5 0.866 -8.465 41.5554)" class="st0" width="2.2" height="0.5"/>
  <rect x="68" y="30.7" transform="matrix(0.7071 -0.7071 0.7071 0.7071 -1.7011 57.8915)" class="st0" width="2.2" height="0.5"/>
  <rect x="62.4" y="26.5" transform="matrix(0.5 -0.866 0.866 0.5 8.5845 68.3138)" class="st0" width="2.2" height="0.5"/>
  <rect x="55.9" y="23.8" transform="matrix(0.2588 -0.9659 0.9659 0.2588 19.0015 72.8333)" class="st0" width="2.2" height="0.5"/>
  <rect x="49.7" y="22" class="st0" width="0.5" height="2.2"/>
  <rect x="41.9" y="23.8" transform="matrix(-0.2588 -0.9659 0.9659 -0.2588 30.9393 71.8192)" class="st0" width="2.2" height="0.5"/>
  <rect x="35.5" y="26.5" transform="matrix(-0.5 -0.866 0.866 -0.5 31.6482 71.7337)" class="st0" width="2.2" height="0.5"/>
  <rect x="29.9" y="30.8" transform="matrix(-0.7071 -0.7071 0.7071 -0.7071 30.9197 74.8292)" class="st0" width="2.2" height="0.5"/>
  <rect x="25.6" y="36.3" transform="matrix(-0.866 -0.5 0.5 -0.866 31.4931 81.6144)" class="st0" width="2.2" height="0.5"/>
  <rect x="22.9" y="42.8" transform="matrix(-0.9659 -0.2588 0.2588 -0.9659 36.0187 90.9056)" class="st0" width="2.2" height="0.5"/>
  <circle class="st0" cx="50" cy="67.2" r="2.1"/>
</svg>
