<?xml version="1.0"?>
<svg xmlns:rdf="http://www.w3.org/1999/02/22-rdf-syntax-ns#" xmlns="http://www.w3.org/2000/svg" xmlns:cc="http://creativecommons.org/ns#" xmlns:dc="http://purl.org/dc/elements/1.1/" version="1.1" viewBox="0 0 100 125" x="0px" y="0px">
  <path style="baseline-shift:baseline;block-progression:tb;color:#000000;direction:ltr;text-indent:0;enable-background:accumulate;text-transform:none;" fill="#000" d="m64.452,5c-0.71726,0.000016-1.2793,0.042978-1.7097,0.12903-0.43036,0.086087-0.79553,0.21854-1.0968,0.41935-0.3945,0.25105-0.67733,0.61625-0.83871,1.0645-0.16139,0.4483-0.22581,1.2252-0.22581,2.3226v2.6129c-0.000005,1.0974-0.21842,1.8815-0.6129,2.3226-0.39449,0.44112-1.0711,0.64517-2.0323,0.64516-0.05021,0.00001-0.11822,0.0072-0.22581,0s-0.20068,0.000006-0.25806,0v1.3548c0.05738,0.000011,0.15047,0.0072,0.25806,0s0.1756-0.03225,0.22581-0.03226c0.96112,0.000005,1.6378,0.2399,2.0323,0.67742,0.39449,0.43753,0.6129,1.2001,0.6129,2.2903v2.6129c-0.000005,1.0687,0.06441,1.8313,0.22581,2.2903,0.16138,0.45904,0.44421,0.8063,0.83871,1.0645,0.30124,0.20083,0.66283,0.36554,1.0968,0.45161,0.43393,0.08606,0.99959,0.12903,1.7097,0.12903h0.3871v-1.3548h-0.41936c-0.90375-0.000003-1.5267-0.18261-1.8387-0.51613-0.31201-0.33352-0.45162-1.0281-0.45161-2.0968v-2.5806c-0.000006-1.1906-0.17187-2.0499-0.48387-2.5484-0.31201-0.49849-0.84901-0.84933-1.6452-1.0645,0.79615-0.22234,1.3332-0.59828,1.6452-1.0968,0.312-0.49848,0.48386-1.3255,0.48387-2.5161v-2.6129c-0.000006-1.0759,0.14319-1.7919,0.45161-2.129,0.30841-0.3371,0.90631-0.48386,1.7742-0.48387,0.0502,0.0000155,0.11821-0.00716,0.22581,0,0.10758,0.00719,0.20067,0.0000146,0.25806,0v-1.3552h-0.387zm22.806,0,0,1.3548,0.41936,0c0.89656,0.0000146,1.4909,0.17545,1.8065,0.51613,0.31559,0.34071,0.48387,1.0281,0.48387,2.0968v2.6129c-0.000005,1.1906,0.17186,2.0176,0.48387,2.5161,0.312,0.4985,0.849,0.87443,1.6452,1.0968-0.79616,0.21518-1.3332,0.56603-1.6452,1.0645-0.31201,0.4985-0.48388,1.3577-0.48387,2.5484v2.5806c-0.000005,1.0831-0.13961,1.7883-0.45161,2.129-0.31201,0.34069-0.91349,0.51612-1.7742,0.51613-0.05021,0-0.11822-0.02513-0.22581-0.03226-0.10759-0.0072-0.20068-0.000003-0.25806,0v1.3548h0.45161c0.7316-0.000005,1.2901-0.04655,1.7097-0.12903,0.41959-0.08249,0.78478-0.23287,1.0645-0.41936,0.38731-0.25822,0.64865-0.60906,0.80645-1.0645,0.15779-0.45546,0.25806-1.2252,0.25806-2.3226v-2.6129c-0.000006-1.0902,0.18256-1.8456,0.58064-2.2903,0.39807-0.44469,1.0962-0.67741,2.0645-0.67742,0.0502,0,0.11821,0.02513,0.22581,0.03226,0.10758,0.0072,0.20067,0.000005,0.25806,0v-1.3548c-0.05739,0-0.15048-0.0071-0.25806,0-0.1076,0.0072-0.17561,0.000006-0.22581,0-0.9683,0.000006-1.6664-0.23272-2.0645-0.67742-0.39808-0.44469-0.58065-1.2001-0.58064-2.2903v-2.6129c-0.001-1.0908-0.101-1.8713-0.259-2.3232-0.157-0.4519-0.419-0.8135-0.806-1.0645-0.301-0.1937-0.692-0.3297-1.129-0.4194-0.438-0.0896-0.993-0.129-1.71-0.129h-0.387zm-17.516,13.806c-0.32277,0.000002-0.57693,0.12532-0.80645,0.35484s-0.35484,0.51595-0.35484,0.83871c-0.000002,0.30842,0.11814,0.56976,0.35484,0.80645,0.23669,0.23669,0.49803,0.35484,0.80645,0.35484,0.32276,0,0.6056-0.12173,0.83871-0.35484,0.233-0.233,0.354-0.49,0.354-0.806-0.000004-0.32994-0.12532-0.61277-0.35484-0.83871-0.22953-0.22593-0.50878-0.35484-0.83871-0.35484zm6.2903,0c-0.32277,0.000002-0.57693,0.12532-0.80645,0.35484s-0.35484,0.51595-0.35484,0.83871c-0.000002,0.30842,0.11814,0.56976,0.35484,0.80645,0.23669,0.23669,0.49803,0.35484,0.80645,0.35484,0.32276,0,0.6056-0.12173,0.83871-0.35484,0.2331-0.23311,0.35483-0.49086,0.35484-0.80645-0.000005-0.32994-0.12532-0.61277-0.35484-0.83871-0.22953-0.22593-0.50878-0.35484-0.83871-0.35484zm6.2903,0c-0.32277,0.000002-0.60919,0.12532-0.83871,0.35484s-0.32258,0.51595-0.32258,0.83871c-0.000002,0.30842,0.11814,0.56976,0.35484,0.80645,0.23669,0.23669,0.49803,0.35484,0.80645,0.35484,0.32276,0,0.6056-0.12173,0.83871-0.35484,0.2331-0.23311,0.35484-0.49086,0.35484-0.80645-0.000004-0.32994-0.12532-0.61277-0.35484-0.83871-0.22952-0.22593-0.50878-0.35484-0.83871-0.35484zm-4.5806,9.129c-3.906,11.301-13.385,16.758-20.128,18.194h-0.03226l-1.4194,0.32258,1.1613-1.8387c-2.2096,1.2115-4.4195,2.4528-6.5806,3.6452,2.4974,0.13675,4.1581,0.21606,7.4839,0.3871l-1.8387-1.1613,1.4194-0.32258c0.009-0.002,0.02326,0.002,0.03226,0,7.0685-1.5142,16.835-7.1952,20.871-18.871l-0.96774-0.35484zm-49.484,4.0645-0.19355,0.09677-22.484,12.968-0.25806,0.16129,0.19355,0.25806,8.8387,10.194,0,12.968,0,12.968,0,0.22581,0.19355,0.06452l22.453,12.966,0.161,0.129,0.19355-0.12903,22.452-12.968,0.19355-0.06452v-0.22581-17.935h-0.16129l13.323-7.7097,0.87097-0.51613h-1.0323l-13.194-0.03226v-0.06452l-22.452-12.968-0.19355-0.09678-8.7742-10.129-0.12903-0.16129zm-0.12903,0.70968,8.5806,9.871-22,12.677-8.5484-9.871,21.968-12.677zm8.9677,10.484,0,24.968l-21.644-12.485,21.645-12.483zm0.16129,0,21.645,12.484-21.645,12.484,0-24.968zm22.548,12.774,12.194,0.03226-21.065,12.194-12.226,0,21.097-12.194,0-0.03226zm-44.71,0.35484,10.484,6.0645,0,12.097-10.484-6.0323,0-12.129zm11.226,6.4839,10.226,5.9032-0.03226,0.03226,0.09677,0,0.19355,0.12903,0,12.097-10.484-6.0323,0-12.129zm32.935,1.1935,0,4.4516-10.484,6.0323,0-5.7419,2.2258,0,0.09677,0,0.06452-0.03226,8.0968-4.7097zm-21.516,4.7419,10.29,0,0,6.1935-10.484,6.0323,0-12.097,0.19355-0.12903zm-22.645,0.54839,10.484,6.0323,0,12.161-10.484-6.0645,0-12.129zm44.161,0,0,12.129-10.484,6.0645,0-12.161,10.484-6.0323zm-32.935,6.4839,10.484,6.0323,0,12.129-10.484-6.0323,0-12.129zm21.71,0,0,12.129-10.484,6.0323,0-12.129,10.484-6.0323z"/>
</svg>
