<!DOCTYPE svg PUBLIC "-//W3C//DTD SVG 20010904//EN" "http://www.w3.org/TR/2001/REC-SVG-20010904/DTD/svg10.dtd">
<svg version="1.0" xmlns="http://www.w3.org/2000/svg" width="482px" height="118px" viewBox="0 0 4820 1180" preserveAspectRatio="xMidYMid meet"><g fill="#cccccc" stroke="none">
 <path d="M4216 692 c-3 -6 1 -15 8 -21 8 -7 17 -8 20 -3 3 6 -1 15 -8 21 -8 7 -17 8 -20 3z"/>
 <path d="M1216 541 c-10 -11 -13 -22 -8 -25 5 -3 17 3 26 13 10 11 13 22 8 25 -5 3 -17 -3 -26 -13z"/>
 <path d="M4366 551 c-6 -8 5 -20 31 -35 23 -13 22 12 -2 28 -13 9 -26 12 -29 7z"/>
 <path d="M1396 542 c-3 -6 1 -15 8 -21 8 -7 17 -8 20 -3 3 6 -1 15 -8 21 -8 7 -17 8 -20 3z"/>
 <path d="M1885 526 c-11 -8 -14 -16 -8 -19 6 -4 18 0 28 7 11 8 14 16 8 19 -6 4 -18 0 -28 -7z"/>
 <path d="M2285 526 c-11 -8 -14 -16 -8 -19 6 -4 18 0 28 7 11 8 14 16 8 19 -6 4 -18 0 -28 -7z"/>
 </g>

<g fill="#999999" stroke="none">
 <path d="M1587 703 c-4 -6 0 -18 7 -28 8 -11 16 -14 19 -8 4 6 0 18 -7 28 -8 11 -16 14 -19 8z"/>
 <path d="M2745 631 c-3 -6 3 -15 14 -21 12 -6 22 -6 26 -1 3 6 -3 15 -14 21 -12 6 -22 6 -26 1z"/>
 <path d="M1056 552 c-3 -6 1 -15 8 -21 8 -7 17 -8 20 -3 3 6 -1 15 -8 21 -8 7 -17 8 -20 3z"/>
 <path d="M3276 552 c-3 -6 1 -15 8 -21 8 -7 17 -8 20 -3 3 6 -1 15 -8 21 -8 7 -17 8 -20 3z"/>
 </g>

<g fill="#666666" stroke="none">
 <path d="M3347 1133 c-15 -8 -25 -18 -22 -24 9 -13 20 -11 46 9 28 24 13 33 -24 15z"/>
 <path d="M1556 1132 c-3 -6 1 -15 8 -21 8 -7 17 -8 20 -3 3 6 -1 15 -8 21 -8 7 -17 8 -20 3z"/>
 <path d="M2696 1132 c-3 -6 1 -15 8 -21 8 -7 17 -8 20 -3 3 6 -1 15 -8 21 -8 7 -17 8 -20 3z"/>
 <path d="M3675 1118 c-8 -13 -20 -23 -25 -23 -6 0 -10 -3 -10 -7 0 -5 0 -11 0 -14 0 -4 6 -2 13 4 6 6 17 12 22 13 19 6 44 33 39 41 -9 14 -22 9 -39 -14z"/>
 <path d="M4157 1134 c-3 -5 3 -20 12 -33 11 -14 21 -19 25 -13 3 5 -2 20 -12 33 -11 12 -21 18 -25 13z"/>
 <path d="M4566 1132 c-3 -6 1 -15 8 -21 8 -7 17 -8 20 -3 3 6 -1 15 -8 21 -8 7 -17 8 -20 3z"/>
 <path d="M3286 1065 c-16 -24 -6 -45 11 -22 19 24 23 36 14 41 -5 3 -16 -5 -25 -19z"/>
 <path d="M3556 1071 c-4 -5 -2 -12 4 -16 5 -3 10 -3 10 1 0 3 6 1 14 -5 10 -8 16 -9 21 -1 3 5 4 11 1 11 -3 1 -9 2 -13 3 -5 1 -13 5 -20 9 -6 4 -14 3 -17 -2z"/>
 <path d="M2855 1051 c-3 -6 3 -15 14 -21 12 -6 22 -6 26 -1 3 6 -3 15 -14 21 -12 6 -22 6 -26 1z"/>
 <path d="M3097 1034 c-9 -9 22 -66 32 -59 5 3 7 14 4 25 -6 23 -27 43 -36 34z"/>
 <path d="M3636 1012 c-3 -6 1 -15 8 -21 8 -7 17 -8 20 -3 3 6 -1 15 -8 21 -8 7 -17 8 -20 3z"/>
 <path d="M4286 961 c-4 -6 -4 -16 0 -23 4 -6 3 -8 -4 -4 -6 3 -13 2 -16 -3 -12 -19 12 -20 29 -1 13 15 15 24 8 31 -8 8 -13 8 -17 0z"/>
 <path d="M1578 753 c-7 -14 -3 -33 6 -33 12 -1 17 28 6 35 -5 3 -10 2 -12 -2z"/>
 <path d="M2948 713 c-7 -14 -3 -33 6 -33 12 -1 17 28 6 35 -5 3 -10 2 -12 -2z"/>
 <path d="M4236 672 c-3 -6 1 -15 8 -21 8 -7 17 -8 20 -3 3 6 -1 15 -8 21 -8 7 -17 8 -20 3z"/>
 <path d="M4456 672 c-3 -6 1 -15 8 -21 8 -7 17 -8 20 -3 3 6 -1 15 -8 21 -8 7 -17 8 -20 3z"/>
 <path d="M2926 661 c-4 -6 -4 -16 0 -23 4 -6 3 -8 -4 -4 -6 3 -13 2 -17 -4 -4 -6 -10 -8 -15 -5 -5 3 -11 1 -14 -4 -4 -5 -2 -12 3 -15 5 -4 12 -2 16 4 4 6 10 8 14 5 15 -8 46 34 34 46 -8 8 -13 8 -17 0z"/>
 <path d="M1616 652 c-3 -5 8 -18 24 -30 31 -23 51 -14 22 10 -27 23 -40 29 -46 20z"/>
 <path d="M2016 651 c-8 -13 21 -34 35 -25 7 4 9 3 5 -4 -3 -6 -2 -13 3 -16 18 -11 21 11 3 26 -27 24 -40 29 -46 19z"/>
 <path d="M3100 621 c-6 -12 -6 -22 -1 -26 6 -3 15 3 21 14 6 12 6 22 1 26 -6 3 -15 -3 -21 -14z"/>
 <path d="M1966 621 c-7 -11 0 -15 17 -12 5 1 6 -2 3 -7 -3 -5 8 -21 23 -36 16 -15 31 -24 34 -18 4 5 -11 26 -32 46 -24 24 -41 34 -45 27z"/>
 <path d="M2151 616 c-7 -8 -8 -17 -3 -20 6 -3 15 1 21 8 7 8 8 17 3 20 -6 3 -15 -1 -21 -8z"/>
 <path d="M1586 602 c-3 -5 3 -17 13 -26 11 -10 22 -13 25 -8 3 5 -3 17 -13 26 -11 10 -22 13 -25 8z"/>
 <path d="M1665 541 c-3 -6 3 -15 14 -21 12 -6 22 -6 26 -1 3 6 -3 15 -14 21 -12 6 -22 6 -26 1z"/>
 <path d="M2796 531 c-4 -5 -2 -12 4 -16 5 -3 10 -3 10 1 0 3 7 1 15 -6 8 -7 15 -9 15 -5 0 4 6 2 14 -4 10 -8 16 -9 21 -1 3 5 4 11 1 11 -16 4 -26 7 -31 9 -3 1 -8 3 -12 4 -5 1 -13 5 -20 9 -6 4 -14 3 -17 -2z"/>
 <path d="M76 351 c-10 -11 -13 -22 -8 -25 5 -3 17 3 26 13 10 11 13 22 8 25 -5 3 -17 -3 -26 -13z"/>
 </g>

<g fill="#282828" stroke="none">
 <path d="M2801 1144 c-10 -8 -21 -11 -24 -8 -3 3 -16 -1 -28 -10 -21 -14 -24 -14 -40 0 -31 28 -42 5 -12 -26 l26 -28 35 26 c40 30 51 34 112 32 93 -1 164 -30 202 -80 24 -33 48 -27 29 7 -40 76 -235 132 -300 87z"/>
 <path d="M3415 1150 c-4 -6 -11 -8 -16 -5 -5 4 -15 3 -21 -2 -7 -4 -17 -8 -23 -8 -5 -1 -9 -6 -8 -13 2 -6 -3 -9 -10 -6 -18 7 -52 -32 -37 -41 7 -4 26 6 44 24 18 17 35 29 38 25 4 -3 12 -3 19 2 21 12 152 3 187 -13 18 -9 46 -32 62 -51 20 -24 30 -31 33 -21 2 8 9 29 15 46 12 38 -1 54 -20 24 -12 -20 -12 -20 -43 2 -16 13 -43 28 -58 35 -34 15 -153 16 -162 2z"/>
 <path d="M407 1122 c-15 -17 -17 -58 -17 -385 l0 -367 -87 -1 c-49 0 -114 0 -145 1 -46 1 -61 -3 -78 -20 -11 -11 -18 -26 -14 -32 5 -7 11 -6 19 6 11 14 36 17 171 19 l159 2 3 380 c2 326 4 381 17 388 9 4 13 12 10 18 -9 14 -20 11 -38 -9z"/>
 <path d="M555 1131 c-3 -6 2 -14 10 -18 14 -8 16 -57 18 -389 l2 -379 159 -3 c133 -2 161 -5 171 -19 8 -11 14 -12 19 -5 4 6 -2 20 -14 32 -18 18 -32 20 -165 20 l-145 0 0 360 c0 198 1 361 2 363 1 1 -4 12 -11 25 -12 23 -35 29 -46 13z"/>
 <path d="M1060 1125 c-7 -8 -9 -22 -6 -31 5 -14 9 -13 30 7 14 13 22 27 20 31 -8 13 -31 9 -44 -7z"/>
 <path d="M1195 1131 c-3 -6 2 -14 10 -19 14 -7 16 -42 15 -283 0 -150 -4 -277 -8 -281 -4 -3 -35 -8 -70 -10 -80 -4 -81 -22 -1 -26 52 -3 64 0 85 19 l25 23 -1 275 c-1 157 -5 282 -11 293 -10 19 -34 24 -44 9z"/>
 <path d="M1400 1125 c-7 -8 -9 -22 -6 -31 5 -14 9 -13 30 7 14 13 22 27 20 31 -8 13 -31 9 -44 -7z"/>
 <path d="M1536 1132 c-2 -4 6 -18 19 -30 28 -27 46 -11 19 19 -18 20 -30 24 -38 11z"/>
 <path d="M1799 1123 c-11 -12 -15 -70 -17 -252 -3 -209 -5 -237 -20 -245 -39 -23 -89 -7 -135 42 -16 17 -29 33 -28 36 1 3 0 8 0 11 -1 3 -2 10 -3 15 0 6 -5 10 -11 10 -11 0 -14 -19 -6 -35 3 -5 6 -14 6 -20 1 -5 7 -9 14 -7 7 1 9 -2 6 -8 -9 -14 22 -49 55 -63 35 -15 78 -18 85 -7 3 5 12 7 19 4 8 -3 21 5 30 18 14 19 16 57 16 243 0 177 3 225 15 241 22 33 -1 48 -26 17z"/>
 <path d="M1936 1132 c-2 -4 6 -18 19 -30 28 -27 46 -11 19 19 -18 20 -30 24 -38 11z"/>
 <path d="M2199 1123 c-11 -12 -15 -73 -19 -252 -3 -130 -8 -241 -13 -248 -14 -22 12 -23 27 -1 13 19 16 59 16 249 0 188 3 229 15 239 14 12 12 30 -4 30 -5 0 -15 -7 -22 -17z"/>
 <path d="M2336 1132 c-2 -4 6 -18 19 -30 28 -27 46 -11 19 19 -18 20 -30 24 -38 11z"/>
 <path d="M2540 1125 c-7 -8 -9 -22 -6 -31 5 -14 9 -13 30 7 14 13 22 27 20 31 -8 13 -31 9 -44 -7z"/>
 <path d="M3815 1131 c-3 -6 2 -14 12 -20 17 -8 18 -28 13 -288 l-5 -278 -70 0 -70 0 -3 195 c-1 107 -5 202 -9 210 -3 8 -7 18 -7 23 -1 4 -4 7 -8 7 -8 0 -8 -2 -8 -17 1 -5 0 -100 0 -212 -1 -245 -2 -241 100 -241 57 0 70 3 89 23 21 24 22 29 21 297 -1 156 -5 281 -11 292 -10 19 -34 24 -44 9z"/>
 <path d="M4029 1123 c-11 -13 -14 -98 -14 -454 0 -494 -4 -467 78 -476 44 -5 92 10 83 26 -3 4 -28 6 -56 3 -85 -8 -80 -36 -80 442 0 354 2 425 15 442 22 33 -1 48 -26 17z"/>
 <path d="M4147 1134 c-3 -4 0 -16 8 -28 10 -14 15 -46 15 -101 0 -79 1 -82 33 -113 18 -18 36 -32 39 -32 3 0 13 11 22 25 20 31 10 58 -11 29 -11 -14 -17 -16 -31 -8 -13 9 -18 30 -22 102 -4 75 -9 95 -26 112 -11 11 -23 18 -27 14z"/>
 <path d="M4396 1102 c-17 -20 -43 -54 -60 -75 -20 -25 -26 -41 -20 -47 7 -7 26 11 59 55 26 36 56 70 67 76 10 5 16 14 13 20 -12 18 -30 9 -59 -29z"/>
 <path d="M4571 1092 c-13 -25 2 -38 19 -16 9 10 10 18 3 25 -8 8 -14 5 -22 -9z"/>
 <path d="M3471 1056 c-15 -16 -21 -31 -17 -42 8 -21 26 -7 28 22 2 16 10 19 52 19 63 0 68 18 6 23 -38 3 -49 -1 -69 -22z"/>
 <path d="M2785 1050 c-3 -6 -10 -8 -15 -5 -11 7 -61 -35 -54 -46 3 -5 20 1 37 13 17 13 36 23 42 23 5 0 11 4 13 10 5 14 -15 18 -23 5z"/>
 <path d="M2845 1049 c-4 -5 -4 -10 -1 -10 17 -4 23 -6 44 -13 12 -4 27 -17 33 -28 8 -14 14 -17 22 -9 7 7 6 15 -3 26 -26 31 -84 52 -95 34z"/>
 <path d="M3280 1039 c-12 -22 -6 -54 9 -45 12 8 20 55 10 62 -4 2 -13 -5 -19 -17z"/>
 <path d="M3596 1052 c-7 -12 42 -54 54 -47 8 5 4 15 -11 31 -23 25 -35 29 -43 16z"/>
 <path d="M4546 1051 c-4 -6 -4 -16 0 -23 4 -6 3 -8 -3 -5 -15 9 -49 -31 -37 -43 6 -6 20 4 38 26 19 24 25 39 18 46 -6 6 -12 6 -16 -1z"/>
 <path d="M2948 973 c-2 -4 -2 -65 1 -135 5 -96 3 -132 -7 -145 -7 -10 -11 -26 -8 -36 2 -9 1 -15 -3 -12 -5 2 -16 -2 -26 -9 -12 -8 -14 -15 -7 -20 15 -9 61 35 65 64 2 14 7 33 12 43 11 26 2 234 -12 248 -6 6 -13 7 -15 2z"/>
 <path d="M4285 960 c-12 -14 -15 -24 -9 -30 7 -7 17 -4 29 10 12 14 15 24 9 30 -7 7 -17 4 -29 -10z"/>
 <path d="M4486 971 c-4 -6 -4 -16 0 -23 4 -7 3 -8 -4 -4 -10 6 -142 -156 -142 -174 0 -16 111 -111 122 -104 8 5 -6 24 -42 55 l-53 47 24 33 c13 19 45 63 72 98 32 41 46 66 39 73 -6 6 -12 6 -16 -1z"/>
 <path d="M3125 960 c-3 -5 -3 -15 1 -22 4 -7 8 -24 8 -38 1 -14 6 -26 11 -28 13 -4 19 24 9 46 -4 9 -6 22 -5 29 2 16 -16 26 -24 13z"/>
 <path d="M3136 782 c-2 -4 -5 -21 -5 -38 0 -50 -20 -102 -56 -150 -13 -17 -21 -35 -17 -39 4 -5 2 -5 -5 -1 -6 3 -27 0 -45 -8 -18 -8 -42 -18 -53 -21 -23 -8 -88 -10 -101 -3 -15 7 -34 4 -34 -7 0 -5 9 -10 19 -10 11 0 23 -3 27 -7 11 -11 62 -10 69 2 3 5 12 7 20 3 22 -8 75 16 113 51 35 32 78 104 68 114 -3 3 -1 11 6 19 15 18 22 90 9 97 -5 4 -12 3 -15 -2z"/>
 <path d="M1974 747 c-3 -9 -3 -25 2 -34 4 -10 8 -20 8 -23 1 -3 8 -16 15 -29 9 -16 16 -20 24 -12 7 7 6 15 -4 27 -7 9 -15 28 -17 43 -4 34 -19 49 -28 28z"/>
 <path d="M4175 728 c-10 -26 0 -493 10 -493 6 0 11 84 13 228 1 125 5 227 9 227 3 0 14 -7 24 -16 10 -9 19 -11 23 -6 3 6 -12 25 -34 42 -29 23 -41 28 -45 18z"/>
 <path d="M2365 659 c-4 -5 -4 -13 -1 -16 7 -7 -21 -62 -46 -89 -13 -15 -16 -24 -8 -29 23 -14 70 52 76 107 4 29 -10 46 -21 27z"/>
 <path d="M2715 651 c-7 -12 44 -53 56 -45 16 10 9 23 -20 39 -17 8 -32 11 -36 6z"/>
 <path d="M4268 654 c-4 -3 -4 -12 -2 -19 8 -20 102 -96 108 -87 6 11 -98 115 -106 106z"/>
 <path d="M4477 653 c-4 -4 14 -28 40 -55 53 -54 51 -56 -47 -60 -95 -4 -76 -23 23 -23 l82 0 1 27 c1 19 -12 39 -46 73 -25 25 -49 42 -53 38z"/>
 <path d="M1566 640 c-3 -8 -7 -35 -8 -60 l-3 -45 -58 -3 c-32 -2 -64 2 -71 7 -17 15 -27 2 -16 -19 7 -13 24 -17 74 -19 54 -2 68 1 85 18 12 12 21 33 21 47 l0 26 28 -29 c30 -33 85 -65 105 -62 6 1 19 -1 29 -5 22 -10 69 -3 66 9 -2 6 -19 10 -39 11 -19 0 -40 3 -45 6 -5 3 -21 8 -36 12 -25 6 -60 37 -107 96 -15 20 -21 22 -25 10z"/>
 <path d="M1954 608 c-9 -18 -25 -43 -36 -54 -13 -15 -16 -24 -8 -29 14 -9 37 11 57 49 l16 30 22 -28 c12 -16 25 -24 28 -19 7 10 -41 83 -54 83 -5 0 -16 -15 -25 -32z"/>
 <path d="M2035 631 c-7 -12 12 -24 25 -16 11 7 4 25 -10 25 -5 0 -11 -4 -15 -9z"/>
 <path d="M2075 610 c-3 -5 -2 -11 2 -13 14 -8 63 -2 66 8 3 12 -61 17 -68 5z"/>
 <path d="M2785 610 c-8 -13 6 -18 55 -16 25 0 44 6 43 11 -3 12 -91 16 -98 5z"/>
 <path d="M2707 583 c-4 -3 -7 -84 -7 -179 0 -147 -2 -173 -16 -178 -29 -11 -99 -6 -121 9 -15 11 -24 12 -29 4 -14 -23 25 -43 90 -47 55 -4 67 -1 85 17 20 20 21 32 21 176 0 158 5 176 38 143 9 -9 15 -9 23 -1 8 8 5 15 -12 24 -13 6 -33 18 -45 26 -11 7 -24 10 -27 6z"/>
 <path d="M3442 554 c-7 -12 -26 -16 -78 -18 -91 -1 -90 -21 1 -23 74 -1 105 8 105 32 0 21 -18 27 -28 9z"/>
 <path d="M2045 550 c-7 -12 41 -44 69 -46 12 -1 28 -5 38 -8 22 -10 69 -3 66 9 -2 6 -19 11 -38 11 -35 2 -79 15 -112 34 -11 6 -19 6 -23 0z"/>
 <path d="M1845 520 c-8 -12 20 -24 35 -15 6 3 8 11 5 16 -8 12 -32 12 -40 -1z"/>
 <path d="M2245 520 c-8 -12 20 -24 35 -15 6 3 8 11 5 16 -8 12 -32 12 -40 -1z"/>
 <path d="M1054 378 c-13 -13 -14 -22 -7 -29 8 -8 14 -6 21 7 9 17 19 18 83 14 l74 -5 0 -70 0 -70 -69 -3 c-51 -2 -73 1 -85 13 -24 21 -33 8 -15 -21 14 -21 22 -23 94 -21 47 1 84 7 91 14 21 21 24 125 5 162 l-17 32 -79 -2 c-64 -1 -83 -6 -96 -21z"/>
 <path d="M910 245 c-11 -13 -64 -15 -407 -15 -244 0 -401 4 -413 10 -24 13 -35 -4 -13 -21 13 -11 94 -14 424 -14 375 0 410 1 426 17 12 13 14 21 7 28 -8 8 -15 6 -24 -5z"/>
 </g>

<g fill="#000000" stroke="none">
 <path d="M2785 1135 c-16 -9 -36 -22 -43 -29 -11 -11 -18 -9 -37 10 -35 35 -116 34 -150 -1 l-25 -24 0 -425 0 -425 26 -20 c33 -26 109 -28 142 -5 21 15 22 21 22 180 0 90 2 164 4 164 2 0 25 -12 52 -27 42 -24 60 -28 124 -28 153 1 236 88 255 270 16 150 -38 284 -135 339 -66 37 -185 48 -235 21z m114 -109 c40 -21 54 -60 59 -170 6 -134 -9 -201 -51 -227 -38 -23 -94 -25 -142 -5 l-35 15 0 185 0 185 28 15 c35 19 105 20 141 2z"/>
 <path d="M3360 1127 c-78 -41 -84 -65 -88 -330 -4 -281 -6 -277 98 -277 102 0 100 -7 100 280 0 170 3 239 12 248 17 17 83 15 119 -4 58 -30 69 -74 69 -295 0 -231 -1 -229 97 -229 96 0 93 -11 93 313 l0 277 -24 15 c-16 11 -41 15 -77 13 -47 -3 -56 -7 -75 -35 l-21 -32 -23 24 c-38 40 -82 55 -162 55 -59 0 -84 -5 -118 -23z"/>
 <path d="M422 1124 l-22 -15 0 -375 0 -374 -154 0 c-149 0 -155 -1 -170 -22 -22 -31 -20 -84 4 -108 19 -19 33 -20 420 -20 387 0 401 1 420 20 24 24 26 77 4 108 -15 21 -21 22 -170 22 l-154 0 0 374 0 375 -22 15 c-14 10 -44 16 -78 16 -34 0 -64 -6 -78 -16z"/>
 <path d="M1075 1115 l-25 -24 0 -263 c0 -315 -2 -308 94 -308 100 0 96 -12 96 313 0 274 0 276 -22 291 -13 9 -43 16 -71 16 -38 0 -53 -5 -72 -25z"/>
 <path d="M1415 1115 l-25 -24 0 -269 c0 -268 0 -269 23 -290 18 -17 36 -22 79 -22 65 0 88 18 88 71 l1 34 32 -37 c58 -68 162 -95 259 -68 34 10 89 60 101 92 3 9 17 0 43 -28 53 -56 115 -78 200 -71 69 5 101 21 137 68 30 42 37 93 37 312 0 208 0 208 -25 232 -34 35 -121 36 -153 2 -21 -22 -22 -31 -22 -249 0 -254 -1 -258 -68 -258 -49 0 -95 29 -115 73 -14 29 -17 68 -17 221 0 185 0 187 -25 211 -20 21 -34 25 -79 25 -47 0 -57 -4 -75 -26 -20 -25 -21 -39 -21 -250 0 -249 -1 -254 -68 -254 -49 0 -95 29 -115 73 -14 29 -17 68 -17 221 0 185 0 187 -25 211 -19 20 -34 25 -75 25 -41 0 -56 -5 -75 -25z"/>
 <path d="M4041 1114 c-20 -26 -21 -37 -21 -449 l0 -422 23 -21 c29 -28 95 -30 126 -4 20 16 21 27 24 256 l2 239 30 -29 c17 -16 62 -60 102 -97 l72 -67 80 0 c69 0 82 3 91 19 9 17 -4 33 -100 122 -61 57 -110 106 -110 110 0 3 46 67 102 140 138 182 142 188 121 211 -21 23 -119 25 -150 3 -12 -9 -61 -68 -109 -131 l-86 -115 -24 22 c-22 20 -24 31 -24 104 0 106 -19 135 -85 135 -35 0 -48 -5 -64 -26z"/>
 <path d="M1056 368 c-10 -13 -16 -43 -16 -73 0 -74 25 -95 112 -95 84 0 98 14 98 97 0 81 -14 93 -108 93 -62 0 -73 -3 -86 -22z"/>
 </g>

<g fill="#ffffff" stroke="none">
 <path d="M0 590 l0 -590 2410 0 2410 0 0 590 0 590 -2410 0 -2410 0 0 -590z m2960 539 c68 -15 116 -53 147 -118 25 -49 28 -70 31 -171 5 -142 -16 -214 -76 -271 -69 -65 -192 -75 -293 -24 -26 13 -49 21 -53 18 -3 -4 -6 -79 -6 -168 0 -112 -4 -165 -12 -173 -12 -12 -104 -17 -132 -6 -14 5 -16 55 -16 455 l0 449 79 0 c73 0 79 -2 84 -22 l6 -22 23 21 c45 41 127 53 218 32z m617 -1 c15 -6 43 -25 60 -42 l33 -30 11 33 11 32 77 -3 76 -3 0 -290 0 -290 -80 0 -80 0 -5 220 c-5 214 -6 221 -29 253 -35 46 -64 62 -114 62 -80 0 -81 -4 -87 -289 l-5 -246 -75 0 -75 0 -3 253 c-3 303 0 313 97 343 41 12 157 10 188 -3z m-2987 -393 l5 -380 160 -5 160 -5 0 -60 0 -60 -395 -3 c-217 -1 -405 0 -418 3 -21 5 -23 10 -20 63 l3 57 160 5 160 5 3 370 c1 204 4 376 7 383 3 9 27 12 87 10 l83 -3 5 -380z m635 90 l0 -290 -75 0 -75 0 -3 293 -2 293 77 -3 78 -3 0 -290z m347 98 c2 -167 6 -204 21 -235 38 -76 141 -114 187 -68 19 19 20 33 20 248 0 125 4 233 9 240 5 9 29 12 82 10 l74 -3 5 -195 c4 -165 8 -201 24 -233 38 -76 140 -113 186 -67 19 19 20 33 20 248 0 125 4 233 9 240 5 9 29 12 82 10 l74 -3 3 -248 c2 -229 1 -250 -17 -286 -26 -49 -65 -66 -161 -66 -64 0 -82 4 -123 28 -26 15 -54 39 -63 52 -22 33 -30 31 -50 -10 -24 -51 -64 -68 -159 -69 -70 -1 -86 2 -128 27 -26 15 -54 39 -63 52 -20 31 -34 23 -34 -19 0 -47 -18 -57 -92 -54 l-63 3 -3 298 -2 297 79 0 79 0 4 -197z m2602 181 c3 -9 6 -52 6 -97 0 -69 3 -84 22 -104 12 -13 27 -23 33 -23 7 0 52 54 101 120 l89 119 78 1 c71 0 77 -2 77 -20 0 -11 -52 -90 -116 -175 l-116 -155 113 -108 c71 -69 110 -112 105 -120 -5 -8 -36 -12 -86 -12 l-79 0 -48 43 c-26 24 -73 66 -103 94 -30 28 -58 49 -62 47 -4 -3 -8 -113 -8 -244 0 -270 3 -260 -79 -260 -74 0 -71 -20 -71 455 0 233 3 430 6 439 9 23 129 23 138 0z m-2940 -740 c11 -28 6 -120 -7 -138 -10 -14 -25 -16 -87 -14 l-75 3 -3 69 c-2 38 -1 75 2 83 8 21 162 18 170 -3z"/>
 <path d="M2793 1053 c-12 -2 -36 -17 -53 -33 l-30 -28 2 -173 3 -173 40 -23 c78 -44 162 -23 196 50 25 56 27 237 3 297 -23 58 -96 96 -161 83z"/>
 </g>

</svg>