<?xml version="1.0"?>
<svg xmlns="http://www.w3.org/2000/svg" xmlns:xlink="http://www.w3.org/1999/xlink" version="1.1" x="0px" y="0px" viewBox="0 0 100 125" enable-background="new 0 0 100 100" xml:space="preserve">
  <path d="M45.871,14.185l27.056,16.907H18.815L45.871,14.185 M45.871,9.94L6.261,34.692h79.221L45.871,9.94L45.871,9.94z"/>
  <rect x="15.702" y="43.013" width="7.2" height="36.541"/>
  <rect x="28.987" y="43.013" width="7.2" height="36.541"/>
  <rect x="42.271" y="43.013" width="7.2" height="36.541"/>
  <rect x="12.189" y="37.058" width="67.364" height="3.6"/>
  <circle cx="45.871" cy="22.316" r="4.31"/>
  <path d="M93.08,91.434H55.555V53.908H93.08V91.434z M59.155,87.834H89.48V57.508H59.155V87.834z"/>
  <rect x="68.839" y="43.013" width="7.2" height="8.57"/>
  <rect x="55.555" y="43.013" width="7.2" height="8.57"/>
  <rect x="12.189" y="81.909" width="41.041" height="3.6"/>
  <rect x="7.725" y="87.834" width="45.505" height="3.6"/>
  <g>
    <path fill-rule="evenodd" clip-rule="evenodd" fill="#000000" d="M82.012,78.007l-0.36-1.821l-1.788-0.063   c-0.214-0.439-0.486-0.84-0.805-1.196l0.634-1.682l-1.542-1.033l-1.329,1.238c-0.442-0.15-0.906-0.243-1.383-0.27l-0.753-1.662   l-1.821,0.36l-0.065,1.844c-0.418,0.207-0.8,0.467-1.141,0.769l-1.734-0.653l-1.033,1.542l1.269,1.362   c-0.145,0.427-0.237,0.875-0.268,1.335l-1.696,0.768l0.36,1.821l1.853,0.065c0.203,0.419,0.46,0.803,0.758,1.146l-0.651,1.73   l1.542,1.033l1.339-1.247c0.439,0.155,0.901,0.251,1.376,0.285l0.75,1.657l1.821-0.36l0.063-1.8c0.44-0.21,0.843-0.477,1.2-0.791   l1.678,0.632l1.033-1.542l-1.216-1.305c0.159-0.454,0.258-0.933,0.287-1.425L82.012,78.007z M75.528,80.405   c-1.09,0.215-2.149-0.494-2.364-1.584s0.494-2.149,1.584-2.364c1.09-0.215,2.149,0.494,2.364,1.584   C77.327,79.131,76.618,80.19,75.528,80.405z"/>
  </g>
  <g>
    <path fill-rule="evenodd" clip-rule="evenodd" fill="#000000" d="M73.323,64.706l-0.967-1.388l-1.515,0.602   c-0.34-0.288-0.713-0.523-1.109-0.703l-0.087-1.636l-1.665-0.298l-0.655,1.52c-0.424,0.037-0.845,0.129-1.253,0.281l-1.237-1.111   l-1.388,0.967l0.621,1.562c-0.273,0.326-0.497,0.682-0.671,1.059l-1.686,0.09l-0.298,1.665l1.558,0.672   c0.035,0.409,0.123,0.817,0.265,1.212l-1.134,1.262l0.967,1.388l1.57-0.624c0.323,0.275,0.677,0.501,1.052,0.679l0.09,1.682   l1.665,0.298l0.66-1.531c0.423-0.032,0.844-0.12,1.252-0.267l1.233,1.108l1.388-0.967l-0.606-1.525   c0.29-0.336,0.529-0.706,0.712-1.099l1.631-0.087l0.298-1.665l-1.493-0.644c-0.033-0.437-0.126-0.873-0.282-1.294L73.323,64.706z    M68.791,69.081c-0.831,0.579-1.974,0.375-2.553-0.456s-0.375-1.974,0.456-2.553c0.831-0.579,1.974-0.375,2.553,0.456   C69.827,67.359,69.622,68.502,68.791,69.081z"/>
  </g>
  <g>
    <path fill-rule="evenodd" clip-rule="evenodd" fill="#000000" d="M86.817,66.456l-0.729-1.202l-1.288,0.42   c-0.267-0.257-0.564-0.471-0.883-0.641l0.013-1.361l-1.366-0.334l-0.623,1.226c-0.353,0.008-0.708,0.063-1.054,0.167l-0.968-0.987   l-1.202,0.729l0.433,1.329c-0.243,0.256-0.448,0.54-0.612,0.843l-1.404-0.014L76.8,67.997l1.257,0.639   c0.008,0.341,0.059,0.684,0.156,1.019l-1.007,0.987l0.729,1.202l1.335-0.435c0.253,0.245,0.536,0.451,0.837,0.618l-0.014,1.4   l1.366,0.334l0.628-1.235c0.352-0.004,0.706-0.055,1.053-0.155l0.964,0.984l1.202-0.729l-0.423-1.297   c0.258-0.264,0.476-0.558,0.648-0.874l1.358,0.013l0.334-1.366l-1.204-0.612c-0.005-0.364-0.059-0.731-0.166-1.088L86.817,66.456z    M82.828,69.847c-0.72,0.437-1.657,0.207-2.093-0.512c-0.437-0.72-0.207-1.657,0.512-2.093c0.72-0.437,1.657-0.207,2.093,0.512   C83.777,68.473,83.548,69.411,82.828,69.847z"/>
  </g>
</svg>
