<?xml version="1.0"?>
<svg xmlns:dc="http://purl.org/dc/elements/1.1/" xmlns:cc="http://creativecommons.org/ns#" xmlns:rdf="http://www.w3.org/1999/02/22-rdf-syntax-ns#" xmlns:svg="http://www.w3.org/2000/svg" xmlns="http://www.w3.org/2000/svg" xmlns:sodipodi="http://sodipodi.sourceforge.net/DTD/sodipodi-0.dtd" xmlns:inkscape="http://www.inkscape.org/namespaces/inkscape" version="1.1" x="0px" y="0px" viewBox="0 0 90.153343 100">
  <g transform="translate(-111.37718,-737.78125)">
    <path style="" d="m 156.65625,737.78125 c -22.09139,0 -40,17.90861 -40,40 0,22.09139 17.90861,40 40,40 22.09139,0 40,-17.90861 40,-40 0,-22.09139 -17.90861,-40 -40,-40 z m 0,7.5 c 17.94925,0 32.5,14.55075 32.5,32.5 0,17.94925 -14.55075,32.5 -32.5,32.5 -17.94925,0 -32.5,-14.55075 -32.5,-32.5 0,-17.94925 14.55075,-32.5 32.5,-32.5 z" fill="#000000" fill-opacity="0.95798322" stroke="none"/>
    <path style="" d="m 117.79807,768.78854 c -8.34146,0.67638 -7.36265,13.39683 -0.64937,14.25975" fill="none" stroke="#030000" stroke-width="0.89999998" stroke-linecap="butt" stroke-linejoin="miter" stroke-miterlimit="4" stroke-opacity="1" stroke-dasharray="none"/>
    <path style="" d="m 195.10964,785.81331 c 8.34146,-0.67638 7.36265,-13.39683 0.64937,-14.25975" fill="none" stroke="#030000" stroke-width="0.89999998" stroke-linecap="butt" stroke-linejoin="miter" stroke-miterlimit="4" stroke-opacity="1" stroke-dasharray="none"/>
    <path style="" d="m 154.34544,752.36259 c -2.84308,-0.77934 -7.76426,2.41731 -10.91821,4.7622 2.73657,0.19563 5.51384,0.33767 8.22881,-0.15026 1.27016,-0.25644 2.7754,-0.55579 3.49681,-1.67354 0.67103,-0.96471 0.63206,-2.46028 -0.80741,-2.9384 z" fill="#000000" fill-opacity="1" stroke="none"/>
    <path style="" d="m 143.45479,757.24248 c 5.98692,0.47761 11.0271,0.40871 12.11355,-2.24762 -0.37598,4.2 -8.31382,3.11513 -12.11355,2.24762 z" fill="#000000" fill-opacity="1" stroke="none"/>
    <path style="" d="m 151.83027,795.99214 c -2.94564,-0.11701 -7.01756,4.10863 -9.56033,7.10534 2.71003,-0.42756 5.44761,-0.91653 7.98219,-2.00512 1.17941,-0.53671 2.57813,-1.16834 3.02842,-2.42015 0.43577,-1.09135 0.06,-2.53947 -1.45028,-2.68007 z" fill="#000000" fill-opacity="1" stroke="none"/>
    <path style="" d="m 142.32338,803.2059 c 5.94006,-0.88706 10.83441,-2.09268 11.29277,-4.92576 0.58244,4.17638 -7.39529,4.91257 -11.29277,4.92576 z" fill="#000000" fill-opacity="1" stroke="none"/>
    <path style="" d="m 177.63616,759.73549 c -1.23309,-2.67768 -6.84681,-4.38728 -10.67131,-5.29235 1.61133,2.22051 3.28988,4.43769 5.41053,6.20178 1.01367,0.80717 2.21148,1.76666 3.53128,1.59954 1.17022,-0.10721 2.28989,-1.09949 1.7295,-2.50897 z" fill="#000000" fill-opacity="1" stroke="none"/>
    <path style="" d="m 166.89251,754.53997 c 3.48721,4.88985 6.78348,8.70335 9.51584,7.82551 -3.45671,2.41505 -7.7346,-4.35885 -9.51584,-7.82551 z" fill="#000000" fill-opacity="1" stroke="none"/>
    <path style="" d="m 182.10728,787.75898 c -1.74937,-2.3728 -7.59289,-2.91119 -11.52141,-3.02372 2.02729,1.84856 4.11973,3.68025 6.55346,4.97877 1.15602,0.58537 2.52319,1.28267 3.78187,0.85196 1.12433,-0.34177 2.02007,-1.54007 1.18608,-2.80701 z" fill="#000000" fill-opacity="1" stroke="none"/>
    <path style="" d="m 170.53462,784.84473 c 4.40446,4.08313 8.40415,7.1508 10.90239,5.73826 -2.89657,3.06452 -8.45657,-2.70372 -10.90239,-5.73826 z" fill="#000000" fill-opacity="1" stroke="none"/>
    <path style="" d="m 185.59828,771.33482 c -2.87339,-0.65889 -7.65553,2.74224 -10.7079,5.21792 2.74238,0.0802 5.52317,0.10509 8.21518,-0.49679 1.25822,-0.30972 2.74952,-0.67221 3.4232,-1.81936 0.62979,-0.99212 0.52786,-2.48473 -0.93048,-2.90177 z" fill="#000000" fill-opacity="1" stroke="none"/>
    <path style="" d="m 174.92288,776.66916 c 6.00172,0.22498 11.03452,-0.0562 12.00811,-2.75593 -0.19872,4.21211 -8.17521,3.46261 -12.00811,2.75593 z" fill="#000000" fill-opacity="1" stroke="none"/>
    <path style="" d="m 150.9484,779.38047 c -0.11772,-2.94562 -4.65392,-6.66844 -7.84344,-8.96474 0.64182,2.66742 1.34704,5.35742 2.63383,7.79737 0.62884,1.13296 1.36974,2.477 2.65341,2.82627 1.12256,0.34756 2.53619,-0.14224 2.5562,-1.6589 z" fill="#000000" fill-opacity="1" stroke="none"/>
    <path style="" d="m 143.00114,770.47762 c 1.35684,5.85066 2.94802,10.63358 5.80859,10.86509 -4.11681,0.91286 -5.48536,-6.98101 -5.80859,-10.86509 z" fill="#000000" fill-opacity="1" stroke="none"/>
    <g transform="matrix(0.04018871,-0.02440592,0.02440592,0.04018871,111.49836,755.6326)">
      <path d="m 301.69722,529.24644 c 26.08333,-10.38892 52.16667,-12.41051 78.25,-16.22963 -4.58268,7.34198 -9.57835,14.68395 -17.96852,22.02593 -19.08708,7.70044 -40.74573,14.1151 -62.88981,20.28704 0.5546,-8.37961 0.60873,-16.25874 2.60833,-26.08334 z" style="" fill="#000000" fill-opacity="1" stroke="#000000" stroke-width="1px" stroke-linecap="butt" stroke-linejoin="miter" stroke-opacity="1"/>
      <path d="m 297.92963,528.95663 c -0.97903,8.43633 -1.52547,14.97824 -1.73889,27.24259 -26.3226,7.46308 -38.80252,0.75215 -53.32593,-5.7963 8.14796,-11.07642 15.60794,-22.84082 21.4463,-36.22685 11.03521,5.95266 21.85554,13.19456 33.61852,14.78056 z" style="" fill="#000000" fill-opacity="1" stroke="#000000" stroke-width="1px" stroke-linecap="butt" stroke-linejoin="miter" stroke-opacity="1"/>
      <path d="m 238.80741,548.95385 c -5.36483,2.0222 -18.77472,-12.04574 -28.98148,-19.70741 10.06448,-13.01238 22.13664,-22.67865 34.48796,-31.87963 5.80309,5.86574 11.43186,12.42874 17.96852,15.36019 -7.00733,12.89329 -14.20095,25.60028 -23.475,36.22685 z" style="" fill="#000000" fill-opacity="1" stroke="#000000" stroke-width="1px" stroke-linecap="butt" stroke-linejoin="miter" stroke-opacity="1"/>
      <path d="m 207.79722,526.92792 c -7.16862,-6.94654 -12.30418,-22.4241 -15.65,-38.54537 18.2149,3.33774 32.83444,3.08012 48.10926,3.47778 l 1.73889,3.76759 c -12.02522,9.30937 -23.58752,19.04675 -34.19815,31.3 z" style="" fill="#000000" fill-opacity="1" stroke="#000000" stroke-width="1px" stroke-linecap="butt" stroke-linejoin="miter" stroke-opacity="1"/>
      <path d="m 191.85741,486.06403 c -2.1917,-16.24498 6.08585,-28.68297 11.8824,-42.02314 13.0712,17.03744 25.66642,28.83916 37.96575,37.38611 -0.88258,2.60833 -0.75055,6.08611 -0.86945,7.825 -15.50304,0.17213 -31.93139,-1.04369 -48.9787,-3.18797 z" style="" fill="#000000" fill-opacity="1" stroke="#000000" stroke-width="1px" stroke-linecap="butt" stroke-linejoin="miter" stroke-opacity="1"/>
      <path d="m 205.76852,441.72237 c 8.67238,-10.47913 21.1817,-16.35394 33.61852,-22.31574 2.82099,20.82788 4.79676,39.8403 12.17222,55.35463 -3.4816,1.05627 -5.60949,2.91967 -8.40463,4.63703 -11.28709,-7.85887 -23.78059,-20.54333 -37.38611,-37.67592 z" style="" fill="#000000" fill-opacity="1" stroke="#000000" stroke-width="1px" stroke-linecap="butt" stroke-linejoin="miter" stroke-opacity="1"/>
      <path d="m 242.28519,418.53718 c 12.01587,-5.62598 27.66008,-3.99527 41.73333,-5.50648 -2.76429,21.02262 -8.04489,44.56156 -4.34722,59.12222 -10.93843,-1.44741 -18.0399,0.17475 -25.21389,1.73889 -8.42517,-15.95568 -8.56074,-36.64827 -12.17222,-55.35463 z" style="" fill="#000000" fill-opacity="1" stroke="#000000" stroke-width="1px" stroke-linecap="butt" stroke-linejoin="miter" stroke-opacity="1"/>
      <path d="m 303.3125,412.65625 c -5.46432,0.005 -11.01557,0.12122 -16.6875,0.375 -2.68698,21.51596 -7.67079,46.48944 -4.625,59.40625 31.08638,16.76441 64.29375,7.95527 97.65625,-2.59375 14.16862,-3.63838 29.65449,0.22788 40.875,-0.3125 14.72038,-1.37517 40.45819,-23.44584 78.8125,-26.375 l -37.09375,0 c -11.2881,-1.70134 -23.1857,-3.02337 -34.3125,-4.59375 -0.16238,3.99855 -3.43033,7.1875 -7.46875,7.1875 -4.14214,0 -7.5,-3.35786 -7.5,-7.5 0,-0.72057 0.0916,-1.40294 0.28125,-2.0625 -8.95637,-1.68639 -16.81036,-3.74249 -22.59375,-6.625 23.66642,0.40538 47.57326,-2.51402 59.71875,-6.09375 -50.31418,-0.32965 -94.24073,-10.85689 -147.0625,-10.8125 z M 413.25,436.1875 c 4.64002,0.87367 9.5879,1.65527 14.6875,2.375 0.004,-0.10269 0.0312,-0.20878 0.0312,-0.3125 0,-4.14214 -3.35786,-7.5 -7.5,-7.5 -3.42156,0 -6.31804,2.30567 -7.21875,5.4375 z" style="" fill="#000000" fill-opacity="0.95798322" stroke="#000000" stroke-width="1px" stroke-linecap="butt" stroke-linejoin="miter" stroke-opacity="1"/>
      <path d="m 412.18238,469.48709 c 15.62694,35.59848 29.26043,71.19696 39.29833,106.79544" style="" fill="none" stroke="#000000" stroke-width="1.79999995" stroke-linecap="round" stroke-linejoin="miter" stroke-miterlimit="4" stroke-opacity="1" stroke-dasharray="none"/>
      <path d="m 422.44178,467.83617 c 31.15727,23.25248 60.58065,47.48857 86.87663,73.49882" style="" fill="none" stroke="#000000" stroke-width="1.79999995" stroke-linecap="round" stroke-linejoin="miter" stroke-miterlimit="4" stroke-opacity="1" stroke-dasharray="none"/>
      <path d="m 431.00949,464.10442 c 24.04357,14.62668 46.74913,20.41425 67.04132,25.7647" style="" fill="none" stroke="#000000" stroke-width="1.79999995" stroke-linecap="round" stroke-linejoin="miter" stroke-miterlimit="4" stroke-opacity="1" stroke-dasharray="none"/>
      <path transform="matrix(0.96495348,0,0,0.91670586,15.419103,65.056618)" d="m 425.68181,407.68973 c 0,3.31356 -2.55187,5.99974 -5.69975,5.99974 -3.14789,0 -5.69976,-2.68618 -5.69976,-5.99974 0,-3.31357 2.55187,-5.99975 5.69976,-5.99975 3.14788,0 5.69975,2.68618 5.69975,5.99975 z" style="" fill="#000000" fill-opacity="0.95798322" stroke="none"/>
      <path d="m 438.4945,461.08611 c 22.87455,7.32455 42.58818,6.53611 60.24834,6.00242" style="" fill="none" stroke="#000000" stroke-width="1.79999995" stroke-linecap="round" stroke-linejoin="miter" stroke-miterlimit="4" stroke-opacity="1" stroke-dasharray="none"/>
    </g>
    <g transform="matrix(0.03223039,0.03423424,-0.03423424,0.03223039,170.20222,739.46283)">
      <path d="m 301.69722,529.24644 c 26.08333,-10.38892 52.16667,-12.41051 78.25,-16.22963 -4.58268,7.34198 -9.57835,14.68395 -17.96852,22.02593 -19.08708,7.70044 -40.74573,14.1151 -62.88981,20.28704 0.5546,-8.37961 0.60873,-16.25874 2.60833,-26.08334 z" style="" fill="#000000" fill-opacity="1" stroke="#000000" stroke-width="1px" stroke-linecap="butt" stroke-linejoin="miter" stroke-opacity="1"/>
      <path d="m 297.92963,528.95663 c -0.97903,8.43633 -1.52547,14.97824 -1.73889,27.24259 -26.3226,7.46308 -38.80252,0.75215 -53.32593,-5.7963 8.14796,-11.07642 15.60794,-22.84082 21.4463,-36.22685 11.03521,5.95266 21.85554,13.19456 33.61852,14.78056 z" style="" fill="#000000" fill-opacity="1" stroke="#000000" stroke-width="1px" stroke-linecap="butt" stroke-linejoin="miter" stroke-opacity="1"/>
      <path d="m 238.80741,548.95385 c -5.36483,2.0222 -18.77472,-12.04574 -28.98148,-19.70741 10.06448,-13.01238 22.13664,-22.67865 34.48796,-31.87963 5.80309,5.86574 11.43186,12.42874 17.96852,15.36019 -7.00733,12.89329 -14.20095,25.60028 -23.475,36.22685 z" style="" fill="#000000" fill-opacity="1" stroke="#000000" stroke-width="1px" stroke-linecap="butt" stroke-linejoin="miter" stroke-opacity="1"/>
      <path d="m 207.79722,526.92792 c -7.16862,-6.94654 -12.30418,-22.4241 -15.65,-38.54537 18.2149,3.33774 32.83444,3.08012 48.10926,3.47778 l 1.73889,3.76759 c -12.02522,9.30937 -23.58752,19.04675 -34.19815,31.3 z" style="" fill="#000000" fill-opacity="1" stroke="#000000" stroke-width="1px" stroke-linecap="butt" stroke-linejoin="miter" stroke-opacity="1"/>
      <path d="m 191.85741,486.06403 c -2.1917,-16.24498 6.08585,-28.68297 11.8824,-42.02314 13.0712,17.03744 25.66642,28.83916 37.96575,37.38611 -0.88258,2.60833 -0.75055,6.08611 -0.86945,7.825 -15.50304,0.17213 -31.93139,-1.04369 -48.9787,-3.18797 z" style="" fill="#000000" fill-opacity="1" stroke="#000000" stroke-width="1px" stroke-linecap="butt" stroke-linejoin="miter" stroke-opacity="1"/>
      <path d="m 205.76852,441.72237 c 8.67238,-10.47913 21.1817,-16.35394 33.61852,-22.31574 2.82099,20.82788 4.79676,39.8403 12.17222,55.35463 -3.4816,1.05627 -5.60949,2.91967 -8.40463,4.63703 -11.28709,-7.85887 -23.78059,-20.54333 -37.38611,-37.67592 z" style="" fill="#000000" fill-opacity="1" stroke="#000000" stroke-width="1px" stroke-linecap="butt" stroke-linejoin="miter" stroke-opacity="1"/>
      <path d="m 242.28519,418.53718 c 12.01587,-5.62598 27.66008,-3.99527 41.73333,-5.50648 -2.76429,21.02262 -8.04489,44.56156 -4.34722,59.12222 -10.93843,-1.44741 -18.0399,0.17475 -25.21389,1.73889 -8.42517,-15.95568 -8.56074,-36.64827 -12.17222,-55.35463 z" style="" fill="#000000" fill-opacity="1" stroke="#000000" stroke-width="1px" stroke-linecap="butt" stroke-linejoin="miter" stroke-opacity="1"/>
      <path d="m 303.3125,412.65625 c -5.46432,0.005 -11.01557,0.12122 -16.6875,0.375 -2.68698,21.51596 -7.67079,46.48944 -4.625,59.40625 31.08638,16.76441 64.29375,7.95527 97.65625,-2.59375 14.16862,-3.63838 29.65449,0.22788 40.875,-0.3125 14.72038,-1.37517 40.45819,-23.44584 78.8125,-26.375 l -37.09375,0 c -11.2881,-1.70134 -23.1857,-3.02337 -34.3125,-4.59375 -0.16238,3.99855 -3.43033,7.1875 -7.46875,7.1875 -4.14214,0 -7.5,-3.35786 -7.5,-7.5 0,-0.72057 0.0916,-1.40294 0.28125,-2.0625 -8.95637,-1.68639 -16.81036,-3.74249 -22.59375,-6.625 23.66642,0.40538 47.57326,-2.51402 59.71875,-6.09375 -50.31418,-0.32965 -94.24073,-10.85689 -147.0625,-10.8125 z M 413.25,436.1875 c 4.64002,0.87367 9.5879,1.65527 14.6875,2.375 0.004,-0.10269 0.0312,-0.20878 0.0312,-0.3125 0,-4.14214 -3.35786,-7.5 -7.5,-7.5 -3.42156,0 -6.31804,2.30567 -7.21875,5.4375 z" style="" fill="#000000" fill-opacity="0.95798322" stroke="#000000" stroke-width="1px" stroke-linecap="butt" stroke-linejoin="miter" stroke-opacity="1"/>
      <path d="m 412.18238,469.48709 c 15.62694,35.59848 29.26043,71.19696 39.29833,106.79544" style="" fill="none" stroke="#000000" stroke-width="1.79999995" stroke-linecap="round" stroke-linejoin="miter" stroke-miterlimit="4" stroke-opacity="1" stroke-dasharray="none"/>
      <path d="m 422.44178,467.83617 c 31.15727,23.25248 60.58065,47.48857 86.87663,73.49882" style="" fill="none" stroke="#000000" stroke-width="1.79999995" stroke-linecap="round" stroke-linejoin="miter" stroke-miterlimit="4" stroke-opacity="1" stroke-dasharray="none"/>
      <path d="m 431.00949,464.10442 c 24.04357,14.62668 46.74913,20.41425 67.04132,25.7647" style="" fill="none" stroke="#000000" stroke-width="1.79999995" stroke-linecap="round" stroke-linejoin="miter" stroke-miterlimit="4" stroke-opacity="1" stroke-dasharray="none"/>
      <path transform="matrix(0.96495348,0,0,0.91670586,15.419103,65.056618)" d="m 425.68181,407.68973 c 0,3.31356 -2.55187,5.99974 -5.69975,5.99974 -3.14789,0 -5.69976,-2.68618 -5.69976,-5.99974 0,-3.31357 2.55187,-5.99975 5.69976,-5.99975 3.14788,0 5.69975,2.68618 5.69975,5.99975 z" style="" fill="#000000" fill-opacity="0.95798322" stroke="none"/>
      <path d="m 438.4945,461.08611 c 22.87455,7.32455 42.58818,6.53611 60.24834,6.00242" style="" fill="none" stroke="#000000" stroke-width="1.79999995" stroke-linecap="round" stroke-linejoin="miter" stroke-miterlimit="4" stroke-opacity="1" stroke-dasharray="none"/>
    </g>
    <g transform="matrix(0.04062578,0.02367123,-0.02367123,0.04062578,134.83083,761.02683)">
      <path d="m 301.69722,529.24644 c 26.08333,-10.38892 52.16667,-12.41051 78.25,-16.22963 -4.58268,7.34198 -9.57835,14.68395 -17.96852,22.02593 -19.08708,7.70044 -40.74573,14.1151 -62.88981,20.28704 0.5546,-8.37961 0.60873,-16.25874 2.60833,-26.08334 z" style="" fill="#000000" fill-opacity="1" stroke="#000000" stroke-width="1px" stroke-linecap="butt" stroke-linejoin="miter" stroke-opacity="1"/>
      <path d="m 297.92963,528.95663 c -0.97903,8.43633 -1.52547,14.97824 -1.73889,27.24259 -26.3226,7.46308 -38.80252,0.75215 -53.32593,-5.7963 8.14796,-11.07642 15.60794,-22.84082 21.4463,-36.22685 11.03521,5.95266 21.85554,13.19456 33.61852,14.78056 z" style="" fill="#000000" fill-opacity="1" stroke="#000000" stroke-width="1px" stroke-linecap="butt" stroke-linejoin="miter" stroke-opacity="1"/>
      <path d="m 238.80741,548.95385 c -5.36483,2.0222 -18.77472,-12.04574 -28.98148,-19.70741 10.06448,-13.01238 22.13664,-22.67865 34.48796,-31.87963 5.80309,5.86574 11.43186,12.42874 17.96852,15.36019 -7.00733,12.89329 -14.20095,25.60028 -23.475,36.22685 z" style="" fill="#000000" fill-opacity="1" stroke="#000000" stroke-width="1px" stroke-linecap="butt" stroke-linejoin="miter" stroke-opacity="1"/>
      <path d="m 207.79722,526.92792 c -7.16862,-6.94654 -12.30418,-22.4241 -15.65,-38.54537 18.2149,3.33774 32.83444,3.08012 48.10926,3.47778 l 1.73889,3.76759 c -12.02522,9.30937 -23.58752,19.04675 -34.19815,31.3 z" style="" fill="#000000" fill-opacity="1" stroke="#000000" stroke-width="1px" stroke-linecap="butt" stroke-linejoin="miter" stroke-opacity="1"/>
      <path d="m 191.85741,486.06403 c -2.1917,-16.24498 6.08585,-28.68297 11.8824,-42.02314 13.0712,17.03744 25.66642,28.83916 37.96575,37.38611 -0.88258,2.60833 -0.75055,6.08611 -0.86945,7.825 -15.50304,0.17213 -31.93139,-1.04369 -48.9787,-3.18797 z" style="" fill="#000000" fill-opacity="1" stroke="#000000" stroke-width="1px" stroke-linecap="butt" stroke-linejoin="miter" stroke-opacity="1"/>
      <path d="m 205.76852,441.72237 c 8.67238,-10.47913 21.1817,-16.35394 33.61852,-22.31574 2.82099,20.82788 4.79676,39.8403 12.17222,55.35463 -3.4816,1.05627 -5.60949,2.91967 -8.40463,4.63703 -11.28709,-7.85887 -23.78059,-20.54333 -37.38611,-37.67592 z" style="" fill="#000000" fill-opacity="1" stroke="#000000" stroke-width="1px" stroke-linecap="butt" stroke-linejoin="miter" stroke-opacity="1"/>
      <path d="m 242.28519,418.53718 c 12.01587,-5.62598 27.66008,-3.99527 41.73333,-5.50648 -2.76429,21.02262 -8.04489,44.56156 -4.34722,59.12222 -10.93843,-1.44741 -18.0399,0.17475 -25.21389,1.73889 -8.42517,-15.95568 -8.56074,-36.64827 -12.17222,-55.35463 z" style="" fill="#000000" fill-opacity="1" stroke="#000000" stroke-width="1px" stroke-linecap="butt" stroke-linejoin="miter" stroke-opacity="1"/>
      <path d="m 303.3125,412.65625 c -5.46432,0.005 -11.01557,0.12122 -16.6875,0.375 -2.68698,21.51596 -7.67079,46.48944 -4.625,59.40625 31.08638,16.76441 64.29375,7.95527 97.65625,-2.59375 14.16862,-3.63838 29.65449,0.22788 40.875,-0.3125 14.72038,-1.37517 40.45819,-23.44584 78.8125,-26.375 l -37.09375,0 c -11.2881,-1.70134 -23.1857,-3.02337 -34.3125,-4.59375 -0.16238,3.99855 -3.43033,7.1875 -7.46875,7.1875 -4.14214,0 -7.5,-3.35786 -7.5,-7.5 0,-0.72057 0.0916,-1.40294 0.28125,-2.0625 -8.95637,-1.68639 -16.81036,-3.74249 -22.59375,-6.625 23.66642,0.40538 47.57326,-2.51402 59.71875,-6.09375 -50.31418,-0.32965 -94.24073,-10.85689 -147.0625,-10.8125 z M 413.25,436.1875 c 4.64002,0.87367 9.5879,1.65527 14.6875,2.375 0.004,-0.10269 0.0312,-0.20878 0.0312,-0.3125 0,-4.14214 -3.35786,-7.5 -7.5,-7.5 -3.42156,0 -6.31804,2.30567 -7.21875,5.4375 z" style="" fill="#000000" fill-opacity="0.95798322" stroke="#000000" stroke-width="1px" stroke-linecap="butt" stroke-linejoin="miter" stroke-opacity="1"/>
      <path d="m 412.18238,469.48709 c 15.62694,35.59848 29.26043,71.19696 39.29833,106.79544" style="" fill="none" stroke="#000000" stroke-width="1.79999995" stroke-linecap="round" stroke-linejoin="miter" stroke-miterlimit="4" stroke-opacity="1" stroke-dasharray="none"/>
      <path d="m 422.44178,467.83617 c 31.15727,23.25248 60.58065,47.48857 86.87663,73.49882" style="" fill="none" stroke="#000000" stroke-width="1.79999995" stroke-linecap="round" stroke-linejoin="miter" stroke-miterlimit="4" stroke-opacity="1" stroke-dasharray="none"/>
      <path d="m 431.00949,464.10442 c 24.04357,14.62668 46.74913,20.41425 67.04132,25.7647" style="" fill="none" stroke="#000000" stroke-width="1.79999995" stroke-linecap="round" stroke-linejoin="miter" stroke-miterlimit="4" stroke-opacity="1" stroke-dasharray="none"/>
      <path transform="matrix(0.96495348,0,0,0.91670586,15.419103,65.056618)" d="m 425.68181,407.68973 c 0,3.31356 -2.55187,5.99974 -5.69975,5.99974 -3.14789,0 -5.69976,-2.68618 -5.69976,-5.99974 0,-3.31357 2.55187,-5.99975 5.69976,-5.99975 3.14788,0 5.69975,2.68618 5.69975,5.99975 z" style="" fill="#000000" fill-opacity="0.95798322" stroke="none"/>
      <path d="m 438.4945,461.08611 c 22.87455,7.32455 42.58818,6.53611 60.24834,6.00242" style="" fill="none" stroke="#000000" stroke-width="1.79999995" stroke-linecap="round" stroke-linejoin="miter" stroke-miterlimit="4" stroke-opacity="1" stroke-dasharray="none"/>
    </g>
    <g transform="matrix(-0.04365648,-0.01746119,0.01746119,-0.04365648,170.4021,826.05218)">
      <path d="m 301.69722,529.24644 c 26.08333,-10.38892 52.16667,-12.41051 78.25,-16.22963 -4.58268,7.34198 -9.57835,14.68395 -17.96852,22.02593 -19.08708,7.70044 -40.74573,14.1151 -62.88981,20.28704 0.5546,-8.37961 0.60873,-16.25874 2.60833,-26.08334 z" style="" fill="#000000" fill-opacity="1" stroke="#000000" stroke-width="1px" stroke-linecap="butt" stroke-linejoin="miter" stroke-opacity="1"/>
      <path d="m 297.92963,528.95663 c -0.97903,8.43633 -1.52547,14.97824 -1.73889,27.24259 -26.3226,7.46308 -38.80252,0.75215 -53.32593,-5.7963 8.14796,-11.07642 15.60794,-22.84082 21.4463,-36.22685 11.03521,5.95266 21.85554,13.19456 33.61852,14.78056 z" style="" fill="#000000" fill-opacity="1" stroke="#000000" stroke-width="1px" stroke-linecap="butt" stroke-linejoin="miter" stroke-opacity="1"/>
      <path d="m 238.80741,548.95385 c -5.36483,2.0222 -18.77472,-12.04574 -28.98148,-19.70741 10.06448,-13.01238 22.13664,-22.67865 34.48796,-31.87963 5.80309,5.86574 11.43186,12.42874 17.96852,15.36019 -7.00733,12.89329 -14.20095,25.60028 -23.475,36.22685 z" style="" fill="#000000" fill-opacity="1" stroke="#000000" stroke-width="1px" stroke-linecap="butt" stroke-linejoin="miter" stroke-opacity="1"/>
      <path d="m 207.79722,526.92792 c -7.16862,-6.94654 -12.30418,-22.4241 -15.65,-38.54537 18.2149,3.33774 32.83444,3.08012 48.10926,3.47778 l 1.73889,3.76759 c -12.02522,9.30937 -23.58752,19.04675 -34.19815,31.3 z" style="" fill="#000000" fill-opacity="1" stroke="#000000" stroke-width="1px" stroke-linecap="butt" stroke-linejoin="miter" stroke-opacity="1"/>
      <path d="m 191.85741,486.06403 c -2.1917,-16.24498 6.08585,-28.68297 11.8824,-42.02314 13.0712,17.03744 25.66642,28.83916 37.96575,37.38611 -0.88258,2.60833 -0.75055,6.08611 -0.86945,7.825 -15.50304,0.17213 -31.93139,-1.04369 -48.9787,-3.18797 z" style="" fill="#000000" fill-opacity="1" stroke="#000000" stroke-width="1px" stroke-linecap="butt" stroke-linejoin="miter" stroke-opacity="1"/>
      <path d="m 205.76852,441.72237 c 8.67238,-10.47913 21.1817,-16.35394 33.61852,-22.31574 2.82099,20.82788 4.79676,39.8403 12.17222,55.35463 -3.4816,1.05627 -5.60949,2.91967 -8.40463,4.63703 -11.28709,-7.85887 -23.78059,-20.54333 -37.38611,-37.67592 z" style="" fill="#000000" fill-opacity="1" stroke="#000000" stroke-width="1px" stroke-linecap="butt" stroke-linejoin="miter" stroke-opacity="1"/>
      <path d="m 242.28519,418.53718 c 12.01587,-5.62598 27.66008,-3.99527 41.73333,-5.50648 -2.76429,21.02262 -8.04489,44.56156 -4.34722,59.12222 -10.93843,-1.44741 -18.0399,0.17475 -25.21389,1.73889 -8.42517,-15.95568 -8.56074,-36.64827 -12.17222,-55.35463 z" style="" fill="#000000" fill-opacity="1" stroke="#000000" stroke-width="1px" stroke-linecap="butt" stroke-linejoin="miter" stroke-opacity="1"/>
      <path d="m 303.3125,412.65625 c -5.46432,0.005 -11.01557,0.12122 -16.6875,0.375 -2.68698,21.51596 -7.67079,46.48944 -4.625,59.40625 31.08638,16.76441 64.29375,7.95527 97.65625,-2.59375 14.16862,-3.63838 29.65449,0.22788 40.875,-0.3125 14.72038,-1.37517 40.45819,-23.44584 78.8125,-26.375 l -37.09375,0 c -11.2881,-1.70134 -23.1857,-3.02337 -34.3125,-4.59375 -0.16238,3.99855 -3.43033,7.1875 -7.46875,7.1875 -4.14214,0 -7.5,-3.35786 -7.5,-7.5 0,-0.72057 0.0916,-1.40294 0.28125,-2.0625 -8.95637,-1.68639 -16.81036,-3.74249 -22.59375,-6.625 23.66642,0.40538 47.57326,-2.51402 59.71875,-6.09375 -50.31418,-0.32965 -94.24073,-10.85689 -147.0625,-10.8125 z M 413.25,436.1875 c 4.64002,0.87367 9.5879,1.65527 14.6875,2.375 0.004,-0.10269 0.0312,-0.20878 0.0312,-0.3125 0,-4.14214 -3.35786,-7.5 -7.5,-7.5 -3.42156,0 -6.31804,2.30567 -7.21875,5.4375 z" style="" fill="#000000" fill-opacity="0.95798322" stroke="#000000" stroke-width="1px" stroke-linecap="butt" stroke-linejoin="miter" stroke-opacity="1"/>
      <path d="m 412.18238,469.48709 c 15.62694,35.59848 29.26043,71.19696 39.29833,106.79544" style="" fill="none" stroke="#000000" stroke-width="1.79999995" stroke-linecap="round" stroke-linejoin="miter" stroke-miterlimit="4" stroke-opacity="1" stroke-dasharray="none"/>
      <path d="m 422.44178,467.83617 c 31.15727,23.25248 60.58065,47.48857 86.87663,73.49882" style="" fill="none" stroke="#000000" stroke-width="1.79999995" stroke-linecap="round" stroke-linejoin="miter" stroke-miterlimit="4" stroke-opacity="1" stroke-dasharray="none"/>
      <path d="m 431.00949,464.10442 c 24.04357,14.62668 46.74913,20.41425 67.04132,25.7647" style="" fill="none" stroke="#000000" stroke-width="1.79999995" stroke-linecap="round" stroke-linejoin="miter" stroke-miterlimit="4" stroke-opacity="1" stroke-dasharray="none"/>
      <path transform="matrix(0.96495348,0,0,0.91670586,15.419103,65.056618)" d="m 425.68181,407.68973 c 0,3.31356 -2.55187,5.99974 -5.69975,5.99974 -3.14789,0 -5.69976,-2.68618 -5.69976,-5.99974 0,-3.31357 2.55187,-5.99975 5.69976,-5.99975 3.14788,0 5.69975,2.68618 5.69975,5.99975 z" style="" fill="#000000" fill-opacity="0.95798322" stroke="none"/>
      <path d="m 438.4945,461.08611 c 22.87455,7.32455 42.58818,6.53611 60.24834,6.00242" style="" fill="none" stroke="#000000" stroke-width="1.79999995" stroke-linecap="round" stroke-linejoin="miter" stroke-miterlimit="4" stroke-opacity="1" stroke-dasharray="none"/>
    </g>
    <g transform="matrix(-0.01464835,-0.04467893,0.04467893,-0.01464835,142.65764,804.09791)">
      <path d="m 301.69722,529.24644 c 26.08333,-10.38892 52.16667,-12.41051 78.25,-16.22963 -4.58268,7.34198 -9.57835,14.68395 -17.96852,22.02593 -19.08708,7.70044 -40.74573,14.1151 -62.88981,20.28704 0.5546,-8.37961 0.60873,-16.25874 2.60833,-26.08334 z" style="" fill="#000000" fill-opacity="1" stroke="#000000" stroke-width="1px" stroke-linecap="butt" stroke-linejoin="miter" stroke-opacity="1"/>
      <path d="m 297.92963,528.95663 c -0.97903,8.43633 -1.52547,14.97824 -1.73889,27.24259 -26.3226,7.46308 -38.80252,0.75215 -53.32593,-5.7963 8.14796,-11.07642 15.60794,-22.84082 21.4463,-36.22685 11.03521,5.95266 21.85554,13.19456 33.61852,14.78056 z" style="" fill="#000000" fill-opacity="1" stroke="#000000" stroke-width="1px" stroke-linecap="butt" stroke-linejoin="miter" stroke-opacity="1"/>
      <path d="m 238.80741,548.95385 c -5.36483,2.0222 -18.77472,-12.04574 -28.98148,-19.70741 10.06448,-13.01238 22.13664,-22.67865 34.48796,-31.87963 5.80309,5.86574 11.43186,12.42874 17.96852,15.36019 -7.00733,12.89329 -14.20095,25.60028 -23.475,36.22685 z" style="" fill="#000000" fill-opacity="1" stroke="#000000" stroke-width="1px" stroke-linecap="butt" stroke-linejoin="miter" stroke-opacity="1"/>
      <path d="m 207.79722,526.92792 c -7.16862,-6.94654 -12.30418,-22.4241 -15.65,-38.54537 18.2149,3.33774 32.83444,3.08012 48.10926,3.47778 l 1.73889,3.76759 c -12.02522,9.30937 -23.58752,19.04675 -34.19815,31.3 z" style="" fill="#000000" fill-opacity="1" stroke="#000000" stroke-width="1px" stroke-linecap="butt" stroke-linejoin="miter" stroke-opacity="1"/>
      <path d="m 191.85741,486.06403 c -2.1917,-16.24498 6.08585,-28.68297 11.8824,-42.02314 13.0712,17.03744 25.66642,28.83916 37.96575,37.38611 -0.88258,2.60833 -0.75055,6.08611 -0.86945,7.825 -15.50304,0.17213 -31.93139,-1.04369 -48.9787,-3.18797 z" style="" fill="#000000" fill-opacity="1" stroke="#000000" stroke-width="1px" stroke-linecap="butt" stroke-linejoin="miter" stroke-opacity="1"/>
      <path d="m 205.76852,441.72237 c 8.67238,-10.47913 21.1817,-16.35394 33.61852,-22.31574 2.82099,20.82788 4.79676,39.8403 12.17222,55.35463 -3.4816,1.05627 -5.60949,2.91967 -8.40463,4.63703 -11.28709,-7.85887 -23.78059,-20.54333 -37.38611,-37.67592 z" style="" fill="#000000" fill-opacity="1" stroke="#000000" stroke-width="1px" stroke-linecap="butt" stroke-linejoin="miter" stroke-opacity="1"/>
      <path d="m 242.28519,418.53718 c 12.01587,-5.62598 27.66008,-3.99527 41.73333,-5.50648 -2.76429,21.02262 -8.04489,44.56156 -4.34722,59.12222 -10.93843,-1.44741 -18.0399,0.17475 -25.21389,1.73889 -8.42517,-15.95568 -8.56074,-36.64827 -12.17222,-55.35463 z" style="" fill="#000000" fill-opacity="1" stroke="#000000" stroke-width="1px" stroke-linecap="butt" stroke-linejoin="miter" stroke-opacity="1"/>
      <path d="m 303.3125,412.65625 c -5.46432,0.005 -11.01557,0.12122 -16.6875,0.375 -2.68698,21.51596 -7.67079,46.48944 -4.625,59.40625 31.08638,16.76441 64.29375,7.95527 97.65625,-2.59375 14.16862,-3.63838 29.65449,0.22788 40.875,-0.3125 14.72038,-1.37517 40.45819,-23.44584 78.8125,-26.375 l -37.09375,0 c -11.2881,-1.70134 -23.1857,-3.02337 -34.3125,-4.59375 -0.16238,3.99855 -3.43033,7.1875 -7.46875,7.1875 -4.14214,0 -7.5,-3.35786 -7.5,-7.5 0,-0.72057 0.0916,-1.40294 0.28125,-2.0625 -8.95637,-1.68639 -16.81036,-3.74249 -22.59375,-6.625 23.66642,0.40538 47.57326,-2.51402 59.71875,-6.09375 -50.31418,-0.32965 -94.24073,-10.85689 -147.0625,-10.8125 z M 413.25,436.1875 c 4.64002,0.87367 9.5879,1.65527 14.6875,2.375 0.004,-0.10269 0.0312,-0.20878 0.0312,-0.3125 0,-4.14214 -3.35786,-7.5 -7.5,-7.5 -3.42156,0 -6.31804,2.30567 -7.21875,5.4375 z" style="" fill="#000000" fill-opacity="0.95798322" stroke="#000000" stroke-width="1px" stroke-linecap="butt" stroke-linejoin="miter" stroke-opacity="1"/>
      <path d="m 412.18238,469.48709 c 15.62694,35.59848 29.26043,71.19696 39.29833,106.79544" style="" fill="none" stroke="#000000" stroke-width="1.79999995" stroke-linecap="round" stroke-linejoin="miter" stroke-miterlimit="4" stroke-opacity="1" stroke-dasharray="none"/>
      <path d="m 422.44178,467.83617 c 31.15727,23.25248 60.58065,47.48857 86.87663,73.49882" style="" fill="none" stroke="#000000" stroke-width="1.79999995" stroke-linecap="round" stroke-linejoin="miter" stroke-miterlimit="4" stroke-opacity="1" stroke-dasharray="none"/>
      <path d="m 431.00949,464.10442 c 24.04357,14.62668 46.74913,20.41425 67.04132,25.7647" style="" fill="none" stroke="#000000" stroke-width="1.79999995" stroke-linecap="round" stroke-linejoin="miter" stroke-miterlimit="4" stroke-opacity="1" stroke-dasharray="none"/>
      <path transform="matrix(0.96495348,0,0,0.91670586,15.419103,65.056618)" d="m 425.68181,407.68973 c 0,3.31356 -2.55187,5.99974 -5.69975,5.99974 -3.14789,0 -5.69976,-2.68618 -5.69976,-5.99974 0,-3.31357 2.55187,-5.99975 5.69976,-5.99975 3.14788,0 5.69975,2.68618 5.69975,5.99975 z" style="" fill="#000000" fill-opacity="0.95798322" stroke="none"/>
      <path d="m 438.4945,461.08611 c 22.87455,7.32455 42.58818,6.53611 60.24834,6.00242" style="" fill="none" stroke="#000000" stroke-width="1.79999995" stroke-linecap="round" stroke-linejoin="miter" stroke-miterlimit="4" stroke-opacity="1" stroke-dasharray="none"/>
    </g>
  </g>
</svg>
