<?xml version="1.0"?>
<svg xmlns="http://www.w3.org/2000/svg" xmlns:xlink="http://www.w3.org/1999/xlink" version="1.1" x="0px" y="0px" viewBox="0 0 100.001 123.0575" enable-background="new 0 0 100.001 98.446" xml:space="preserve">
  <g>
    <path fill="#000000" d="M34.761,47.703c-7.801,0-14.366,5.317-16.312,12.511c-0.58-0.166-1.188-0.278-1.85-0.278   c-6.221,0-14.713,7.874-16.25,11.737c-0.886,2.227,0.133,3.521,0.615,3.975c0.75,0.71,1.841,1.052,3.332,1.052   c3.636,0,10.734-2.108,14.942-5.378c1.805,4.159,5.234,7.446,9.481,9.077v3.553v9.662v4.833h4.833h2.417h4.831v-4.833v-9.662   v-3.553c6.349-2.438,10.875-8.585,10.875-15.78C51.676,55.292,44.083,47.703,34.761,47.703z M17.73,66.003   c-1.234,2.38-7.655,5.021-11.713,5.697c2.326-2.721,7.422-6.933,10.583-6.933c0.687,0,0.907,0.229,1.076,0.467   C17.89,65.54,17.9,65.675,17.73,66.003z M22.694,64.479c0.077-6.604,5.443-11.943,12.067-11.943c0.822,0,1.624,0.087,2.399,0.242   C36.993,58.739,30.762,63.645,22.694,64.479z M35.97,93.613h-2.417v-9.662h2.417V93.613z M46.208,68.295   c-0.695-0.77-1.689-1.26-2.808-1.26c-2.104,0-3.809,1.702-3.809,3.804c0,1.563,0.949,2.904,2.297,3.492   c-2.003,1.471-4.452,2.367-7.128,2.367c-5.036,0-9.346-3.087-11.16-7.469c9.449-1.14,16.893-7.015,18.185-14.407   c3.054,2.192,5.058,5.752,5.058,9.795C46.843,65.909,46.584,67.131,46.208,68.295z"/>
    <path fill="#000000" d="M10.675,43.841c1.226-1.311,2.542-2.216,3.452-2.76c0.36,0.056,0.722,0.11,1.099,0.11h26.987   c3.831,0,6.94-3.113,6.94-6.94V16.927c0-3.827-3.109-6.94-6.94-6.94H15.226c-3.827,0-6.94,3.113-6.94,6.94v17.325   c0,1.058,0.257,2.053,0.682,2.952C7.057,42.334,9.096,45.535,10.675,43.841z M12.912,16.927c0-1.275,1.039-2.314,2.314-2.314   h26.987c1.278,0,2.315,1.039,2.315,2.314v17.325c0,1.275-1.037,2.313-2.315,2.313H15.226c-1.275,0-2.314-1.038-2.314-2.313V16.927z   "/>
    <path fill="#000000" d="M17.847,24.38h21.746c1.338,0,2.418-1.082,2.418-2.416c0-1.335-1.08-2.417-2.418-2.417H17.847   c-1.333,0-2.416,1.082-2.416,2.417C15.431,23.299,16.513,24.38,17.847,24.38z"/>
    <path fill="#000000" d="M17.847,31.629h21.746c1.338,0,2.418-1.082,2.418-2.417c0-1.333-1.08-2.417-2.418-2.417H17.847   c-1.333,0-2.416,1.083-2.416,2.417C15.431,30.547,16.513,31.629,17.847,31.629z"/>
    <path fill="#000000" d="M81.877,40.456c-9.99,0-18.124,8.127-18.124,18.123c0,7.87,5.058,14.569,12.086,17.065v3.473v14.496v4.833   h4.829h4.232h4.829v-4.833V79.117v-4.232c6.064-2.933,10.271-9.129,10.271-16.306C100.001,48.583,91.868,40.456,81.877,40.456z    M84.901,93.613h-4.232V79.117h4.232V93.613z M81.877,72.167c-3.291,0-6.314-1.177-8.669-3.132c1.546-0.71,2.631-2.263,2.631-4.077   c0-2.479-2.018-4.492-4.492-4.492c-1.046,0-1.991,0.367-2.752,0.963c-0.198-0.92-0.307-1.872-0.307-2.851   c0-7.496,6.095-13.593,13.589-13.593S95.47,51.083,95.47,58.579C95.47,66.073,89.372,72.167,81.877,72.167z"/>
    <path fill="#000000" d="M90.071,31.206c0.376,0,0.739-0.053,1.098-0.111c0.911,0.544,2.225,1.45,3.455,2.762   c1.577,1.691,3.615-1.508,1.706-6.64c0.424-0.899,0.683-1.892,0.683-2.952V6.94c0-3.827-3.114-6.94-6.941-6.94H63.08   c-3.822,0-6.937,3.113-6.937,6.94v17.325c0,3.828,3.114,6.941,6.937,6.941H90.071z M60.764,24.265V6.94   c0-1.275,1.041-2.313,2.315-2.313h26.991c1.274,0,2.315,1.038,2.315,2.313v17.325c0,1.275-1.041,2.313-2.315,2.313H63.08   C61.805,26.578,60.764,25.541,60.764,24.265z"/>
    <path fill="#000000" d="M65.702,14.395H87.45c1.334,0,2.418-1.081,2.418-2.416c0-1.334-1.084-2.416-2.418-2.416H65.702   c-1.335,0-2.415,1.082-2.415,2.416C63.287,13.313,64.367,14.395,65.702,14.395z"/>
    <path fill="#000000" d="M65.702,21.645H87.45c1.334,0,2.418-1.083,2.418-2.417c0-1.334-1.084-2.417-2.418-2.417H65.702   c-1.335,0-2.415,1.082-2.415,2.417C63.287,20.561,64.367,21.645,65.702,21.645z"/>
  </g>
</svg>
