<?xml version="1.0" encoding="UTF-8" standalone="no"?>
<!-- Created with Inkscape (http://www.inkscape.org/) -->
<svg
   xmlns:svg="http://www.w3.org/2000/svg"
   xmlns="http://www.w3.org/2000/svg"
   version="1.0"
   width="929.21002"
   height="116"
   id="Ebene_1"
   xml:space="preserve"><defs
   id="defs18">
	
	
	
	
	
	
</defs>

<g
   transform="translate(0,7.244)"
   id="g2511"><path
     d="M 524.44855,19.486604 C 524.06611,23.617647 521.06124,21.864069 517.80786,24.118166 C 516.93019,23.994798 515.92916,23.994798 514.55449,23.994798 C 514.30599,21.240183 515.30879,20.739664 515.80403,20.239145 C 517.80786,18.735826 519.19134,19.488367 519.19134,19.488367 C 520.69113,19.234582 522.06404,19.611734 524.44855,19.486604 L 524.44855,19.486604 z M 531.95633,12.724313 L 527.57855,12.724313 L 527.57855,11.598146 L 525.20285,11.598146 L 525.20285,12.222032 C 524.94554,12.345399 524.69705,12.599183 524.44855,12.722551 L 524.20005,12.722551 C 520.05844,9.467416 519.8117,16.104577 517.05356,14.601259 C 516.80506,13.223069 516.93019,11.97001 516.93019,10.343324 C 521.69041,10.216432 519.93507,8.9651348 518.56217,7.3384486 C 518.06693,6.7110377 517.80786,5.7100001 517.6845,5.0843516 C 516.55833,0.95330893 511.92148,-1.5510475 505.168,1.0784386 C 500.77965,2.7051248 501.91463,8.5915081 502.28649,12.597421 C 502.038,12.971048 501.53219,12.84768 501.16033,12.84768 C 496.40011,13.09794 494.2729,18.103128 493.2701,22.110803 C 493.5186,25.743089 493.02161,29.749002 492.39243,33.252634 C 491.76326,36.758028 490.51373,39.512644 490.3886,42.892909 C 490.1401,45.897784 491.26627,49.403178 491.01777,52.157794 C 488.38476,59.921123 486.50429,65.053203 485.13139,73.317051 C 484.13035,75.193996 480.62848,79.199909 479.245,80.077579 C 478.87314,80.701465 479.4935,82.081417 478.87314,82.955563 C 477.74697,84.582249 475.99163,85.459919 474.99059,87.213497 C 475.23909,87.587124 473.48375,87.964275 473.61769,88.591686 C 473.74106,89.215573 474.61873,90.842259 474.99059,91.21941 C 475.11396,91.46967 476.3635,90.842259 476.3635,91.21941 C 476.8693,92.719204 477.99547,95.850972 479.245,96.60175 C 484.75952,97.225636 484.75952,97.225636 487.01009,96.60175 C 488.25963,92.969464 482.75568,94.597912 483.25092,89.714329 C 490.76927,88.214535 493.14321,86.083805 496.14809,78.197109 C 497.52099,72.437618 499.40146,66.805019 502.28121,61.295787 C 502.77644,60.92216 502.65307,59.91936 503.53074,59.542209 C 506.90748,65.174808 513.05117,69.184246 516.04724,75.068866 C 516.80154,82.705303 518.30838,86.836346 520.93082,88.214535 C 521.55999,88.464794 520.93082,90.842259 521.43662,91.342778 C 521.43662,92.093556 521.68512,92.969464 521.31326,93.847134 C 521.05595,94.474545 521.18989,95.225323 521.18989,95.850972 C 521.18989,96.101231 521.18989,96.35149 521.18989,96.60175 C 521.31326,97.733204 521.56175,97.733204 522.68792,98.605588 C 525.94129,100.73279 530.32965,104.11482 534.70742,101.61046 C 536.71126,98.351803 532.45685,94.224285 529.45198,92.095318 C 528.45094,91.34454 526.6956,89.467594 526.94233,88.214535 C 528.57431,86.586086 529.69871,79.450168 529.06954,73.940937 C 528.82104,72.691402 528.57431,71.43658 528.0685,70.435543 C 526.57047,67.557559 523.19373,63.549884 520.31398,60.671901 C 520.68585,60.298274 521.19165,59.794231 521.81201,59.543971 C 521.81201,56.791118 520.68585,55.913447 519.18958,53.911372 C 517.92947,51.907534 515.05853,48.028514 512.92076,46.775454 C 512.92076,46.775454 512.92076,46.648562 510.79355,46.648562 C 510.67018,45.272135 511.05086,44.144206 511.42272,42.642649 C 511.42272,41.516482 512.30039,42.143893 512.54889,39.637774 C 513.17806,37.510569 512.92076,38.761866 513.42656,36.634661 C 513.92179,35.633623 514.18086,34.630823 514.18086,33.002375 C 516.05076,33.629786 519.80818,33.502894 521.44015,33.002375 C 521.44015,33.002375 521.44015,33.002375 521.81201,33.252634 C 522.31782,33.379526 522.44119,32.628748 522.81305,32.503618 C 525.69456,30.998537 526.6956,28.370813 529.0713,28.120554 C 529.0713,28.120554 530.33141,27.493143 532.19954,28.120554 C 532.95384,28.120554 533.58302,28.243921 533.58302,27.493143 C 533.70639,26.366976 533.70639,25.49283 534.33732,24.738527 C 534.83255,27.743402 536.20722,31.125429 538.7151,34.380564 L 541.21417,32.626986 C 538.83847,29.749002 537.3422,26.493868 537.08313,22.736452 C 537.20649,22.986711 537.34043,23.236971 537.58893,23.48723 C 538.4666,23.48723 538.96183,21.608522 539.96463,21.733652 C 540.088,21.483392 540.34707,20.355463 540.59381,19.479555 L 549.9803,19.479555 L 553.35704,18.728776 C 553.35704,17.600847 553.35704,18.351625 553.35704,16.975198 L 550.85797,16.724939 L 550.85797,14.721101 L 550.22879,14.721101 L 550.22879,12.467004 L 548.73076,12.467004 L 548.73076,14.595971 L 544.84822,14.345712 L 544.84822,12.967523 L 543.35018,12.967523 L 543.35018,14.21882 L 539.34427,13.845193 L 539.34427,11.966485 L 537.83743,11.966485 L 537.83743,13.720064 L 531.95104,13.346437 L 531.95104,12.724313 L 531.95633,12.724313 z"
     id="path3672"
     style="fill-rule:evenodd" /><path
     d="M 894.0253,44.651774 L 895.28541,44.651774 L 895.28541,39.142542 L 896.78344,39.142542 L 896.78344,38.141505 L 892.52903,38.141505 L 892.52903,39.142542 L 894.02706,39.142542 L 894.02706,44.651774 L 894.0253,44.651774 z M 897.41085,44.651774 L 898.66039,44.651774 L 898.66039,38.892283 L 899.90992,44.651774 L 900.66422,44.651774 L 901.91376,38.892283 L 901.91376,44.651774 L 903.16329,44.651774 L 903.16329,38.141505 L 901.15945,38.141505 L 900.28178,42.399439 L 899.28956,38.141505 L 897.41085,38.141505 L 897.41085,44.651774 L 897.41085,44.651774 z"
     id="path3674"
     style="fill-rule:evenodd" /><path
     d="M 458.21793,54.165156 L 458.21793,45.901309 L 458.21793,45.901309 L 428.79835,45.901309 L 428.79835,54.165156 L 428.79835,63.803668 L 428.79835,72.067516 C 428.79835,79.203434 423.66627,81.330639 419.78372,81.330639 L 414.40138,81.330639 L 414.40138,36.387926 L 419.78372,36.387926 L 428.79835,36.387926 L 461.59995,36.387926 C 469.35799,36.387926 472.11437,41.396639 472.48624,45.777941 C 472.48624,45.901309 472.48624,45.901309 472.48624,45.901309 L 472.48624,45.901309 L 472.488,45.901309 L 472.488,54.163394 L 472.488,54.163394 L 472.488,54.290286 C 472.11614,58.794955 469.35976,63.803668 461.60172,63.803668 L 459.84814,63.803668 L 473.36567,81.330639 L 456.34274,81.330639 C 456.34274,81.330639 439.67879,58.835765 435.40815,54.230328 M 44.69245,27.3733 L 84.379718,27.3733 L 84.379718,27.3733 L 91.515636,27.3733 C 96.9015,27.3733 103.7854,30.378176 103.7854,40.01845 L 103.7854,41.269747 C 103.7854,45.901309 98.276165,50.157481 84.379718,51.287173 L 84.379718,40.392077 L 44.69245,40.392077 L 44.69245,47.529757 L 44.69245,67.934711 L 44.69245,75.072391 L 84.379718,75.072391 L 84.379718,62.677501 L 103.7854,62.677501 L 103.7854,75.446018 C 103.7854,85.088055 96.899738,88.091168 91.515636,88.091168 L 84.756869,88.091168 L 84.379718,88.091168 L 44.69245,88.091168 L 44.06857,88.091168 L 37.5583,88.091168 C 32.17596,88.091168 25.2903,85.088055 25.2903,75.446018 L 25.2903,67.932948 L 25.2903,47.529757 L 25.2903,40.016688 C 25.2903,30.376413 32.17596,27.371538 37.5583,27.371538 L 43.69141,27.371538 L 44.69245,27.371538 L 44.69245,27.3733 z M 123.56646,36.387926 L 152.86268,36.387926 L 152.98957,36.387926 L 158.37191,36.387926 C 162.25269,36.387926 167.38653,38.515131 167.38653,45.651049 L 167.38653,51.287173 L 167.38653,66.436679 L 167.38653,72.069278 C 167.38653,79.205196 162.25093,81.332401 158.37191,81.332401 L 152.98957,81.332401 L 152.86268,81.332401 L 123.56646,81.332401 L 122.81569,81.332401 L 118.18412,81.332401 C 114.17821,81.332401 109.04437,79.205196 109.04437,72.069278 L 109.04437,66.436679 L 109.04437,51.287173 L 109.04437,45.651049 C 109.04437,38.515131 114.17645,36.387926 118.18412,36.387926 L 122.81569,36.387926 L 123.56646,36.387926 L 123.56646,36.387926 z M 152.86268,45.901309 L 123.56646,45.901309 L 123.56646,51.287173 L 123.56646,66.436679 L 123.56646,71.819019 L 152.86268,71.819019 L 152.86268,66.436679 L 152.86268,51.287173 L 152.86268,45.901309 L 152.86268,45.901309 z M 187.41786,71.817256 L 213.7092,71.817256 L 213.7092,36.387926 L 228.23129,36.387926 L 228.23129,72.069278 C 228.23129,79.205196 223.09921,81.332401 219.09154,81.332401 L 215.33588,81.332401 L 213.7092,81.332401 L 187.41786,81.332401 L 185.16376,81.332401 L 182.03552,81.332401 C 178.15298,81.332401 173.0209,79.205196 173.0209,72.069278 L 173.0209,66.436679 L 173.0209,51.287173 L 173.0209,36.387926 L 178.40324,36.387926 C 182.40915,36.387926 187.41786,38.515131 187.41786,45.651049 L 187.41786,51.287173 L 187.41786,66.436679 L 187.41786,71.817256 L 187.41786,71.817256 z M 233.86566,81.330639 L 248.51464,81.330639 L 248.51464,55.916972 L 274.80422,81.330639 L 274.80422,81.330639 L 274.80422,81.330639 L 286.45009,81.330639 L 285.94957,36.387926 L 280.56723,36.387926 C 276.56132,36.387926 271.55261,38.515131 271.55261,45.651049 L 271.55261,62.051852 L 255.52543,45.651049 C 248.5164,38.515131 241.25359,36.387926 237.37105,36.387926 L 233.86742,36.387926 L 233.86742,40.141817 L 233.86742,41.770266 L 233.86742,81.330639 L 233.86566,81.330639 z M 405.38499,63.805431 L 366.19825,63.805431 L 366.19825,66.436679 L 366.19825,71.819019 L 410.51884,71.819019 C 410.6422,71.819019 410.51884,71.819019 410.51884,71.942386 C 410.14168,76.325451 407.38707,81.332401 399.75063,81.332401 L 366.19648,81.332401 L 365.82286,81.332401 L 360.81414,81.332401 C 356.80823,81.332401 351.80128,79.205196 351.80128,72.069278 L 351.80128,66.436679 L 351.80128,51.287173 L 351.80128,45.651049 C 351.80128,38.515131 356.80647,36.387926 360.81414,36.387926 L 365.82286,36.387926 L 366.19648,36.387926 L 399.75063,36.387926 C 407.38707,36.387926 410.14168,41.396639 410.51884,45.777941 C 410.51884,45.901309 410.6422,45.901309 410.51884,45.901309 L 366.19825,45.901309 L 366.19825,51.287173 L 366.19825,54.165156 L 405.38499,54.165156 L 405.38499,63.805431 L 405.38499,63.805431 z M 305.72888,36.387926 L 301.22068,36.387926 C 293.58425,36.387926 290.82963,41.396639 290.45248,45.777941 C 290.45248,45.901309 290.32911,45.901309 290.32911,45.901309 L 305.72888,45.901309 L 313.11505,45.901309 L 313.11505,81.332401 L 327.51202,81.332401 L 327.51202,45.901309 L 335.14846,45.901309 L 339.65665,45.901309 C 347.29309,45.901309 350.17459,40.89612 350.54822,36.511294 C 350.54822,36.387926 350.54822,36.387926 350.54822,36.387926 L 335.14846,36.387926 L 305.72888,36.387926 L 305.72888,36.387926 z M 562.25534,50.659762 L 601.81572,50.659762 L 602.81675,50.659762 L 609.08558,50.659762 C 614.46615,50.659762 621.23021,53.664637 621.23021,63.304912 L 621.23021,66.436679 L 621.23021,72.319538 L 621.23021,75.44778 C 621.23021,85.089817 614.46615,88.09293 609.08558,88.09293 L 602.32152,88.09293 L 601.81572,88.09293 L 561.63498,88.09293 L 561.63498,87.842671 L 554.48849,87.842671 C 549.10791,87.842671 542.34386,84.964687 542.34386,75.324413 L 542.34386,74.947261 L 561.63322,74.947261 L 561.63322,74.947261 L 601.81395,74.947261 L 601.81395,72.319538 L 601.81395,66.436679 L 601.81395,63.431804 L 562.25358,63.431804 L 560.12638,63.431804 L 554.9943,63.431804 C 549.73885,63.431804 542.84967,60.553821 542.84967,50.911784 L 542.84967,49.034838 L 542.84967,41.89892 L 542.84967,40.020212 C 542.84967,30.379938 549.73709,27.375063 554.9943,27.375063 L 561.25254,27.375063 L 562.25358,27.375063 L 600.19256,27.375063 L 601.93732,27.375063 L 609.08381,27.375063 C 614.46439,27.375063 621.22845,30.379938 621.22845,40.020212 L 621.22845,40.393839 L 600.19256,40.393839 L 600.19256,40.393839 L 562.25358,40.393839 L 562.25358,41.89892 L 562.25358,49.034838 L 562.25358,50.659762 L 562.25534,50.659762 z M 708.73641,53.789767 L 721.12777,53.789767 L 725.88799,53.789767 L 732.02111,53.789767 L 732.02111,51.785929 L 732.02111,51.785929 L 732.02111,46.026438 L 701.97059,46.026438 L 701.97059,72.067516 C 701.97059,79.203434 696.96188,81.330639 692.96654,81.330639 L 687.57539,81.330639 L 687.57539,36.387926 L 700.34919,36.387926 L 701.97059,36.387926 L 732.02111,36.387926 L 734.02494,36.387926 L 737.40168,36.387926 C 741.4076,36.387926 746.41631,38.515131 746.41631,45.651049 L 746.41631,48.032038 L 746.41631,48.032038 L 746.41631,54.165156 C 746.41631,61.301074 741.4076,63.430042 737.40168,63.430042 L 733.27064,63.430042 L 747.04548,81.330639 L 729.8939,81.330639 L 708.73641,53.789767 L 708.73641,53.789767 z M 843.56983,53.789767 L 882.38647,53.789767 L 882.38647,63.430042 L 843.56983,63.430042 L 843.56983,63.93056 L 843.56983,71.817256 L 887.51855,71.817256 C 887.51855,71.817256 887.39519,71.817256 887.39519,71.940624 C 887.01275,76.323688 884.26694,81.330639 876.62522,81.330639 L 843.56983,81.330639 L 843.56983,81.330639 L 838.18925,81.330639 C 834.18334,81.330639 829.0495,79.203434 829.0495,72.067516 L 829.0495,63.93056 L 829.0495,53.789767 L 829.0495,45.649287 C 829.0495,38.513369 834.18158,36.386164 838.18925,36.386164 L 842.70273,36.386164 L 843.56983,36.386164 L 876.62522,36.386164 C 884.26694,36.386164 887.01451,41.394877 887.39519,45.776179 C 887.39519,45.899546 887.51855,45.899546 887.51855,45.899546 L 843.56807,45.899546 L 843.56807,53.789767 L 843.56983,53.789767 z M 641.8819,36.387926 L 634.99448,36.387926 C 627.23996,36.387926 624.48182,41.396639 624.09938,45.777941 C 624.09938,45.901309 624.09938,45.901309 624.09938,45.901309 L 641.8819,45.901309 L 646.89061,45.901309 L 646.89061,81.332401 L 661.28581,81.332401 L 661.28581,45.901309 L 666.04603,45.901309 L 672.93345,45.901309 C 680.68797,45.901309 683.44611,40.89612 683.81797,36.511294 C 683.81797,36.387926 683.81797,36.387926 683.81797,36.387926 L 666.04603,36.387926 L 641.8819,36.387926 L 641.8819,36.387926 z M 788.48809,56.794642 L 803.88433,40.640574 C 807.01257,37.387202 810.26594,36.386164 812.02128,36.386164 L 823.79405,36.386164 L 803.26573,57.792155 L 829.80556,81.328876 L 815.78222,81.328876 C 814.02688,81.328876 810.65014,80.329601 806.89097,77.074466 L 788.36472,60.673663 L 788.36472,72.065753 C 788.36472,79.201671 783.35601,81.328876 779.35009,81.328876 L 773.96952,81.328876 L 773.96952,36.387926 L 788.36472,36.387926 L 788.36472,56.796405 L 788.48809,56.796405 L 788.48809,56.794642 z M 752.05596,36.387926 L 766.45116,36.387926 L 766.45116,72.069278 C 766.45116,79.205196 761.44245,81.332401 757.43653,81.332401 L 752.05596,81.332401 L 752.05596,36.387926 L 752.05596,36.387926 z"
     id="path3678"
     style="fill:#00519e;fill-rule:evenodd" /></g></svg>