<?xml version="1.0"?>
<svg xmlns="http://www.w3.org/2000/svg" xmlns:xlink="http://www.w3.org/1999/xlink" version="1.1" x="0px" y="0px" viewBox="0 0 48 60" enable-background="new 0 0 48 48" xml:space="preserve">
  <path d="M39.5,32.3c-2.5,0-4.7,1.2-6.1,3L21.5,29c0.8-1.5,1.2-3.2,1.2-5c0-1.6-0.4-3.1-1-4.5L34,13c1.4,1.7,3.5,2.7,5.9,2.7  c4.2,0,7.7-3.4,7.7-7.6s-3.4-7.6-7.7-7.6s-7.7,3.4-7.7,7.6c0,0.5,0,0.9,0.1,1.4l-12.8,6.7c-2-2-4.8-3.3-7.9-3.3  c-6.1,0-11.1,5-11.1,11s5,11,11.1,11c2.9,0,5.5-1.1,7.5-2.9l12.8,6.8c0,0.3-0.1,0.6-0.1,0.9c0,4.2,3.4,7.6,7.7,7.6  c4.2,0,7.7-3.4,7.7-7.6S43.7,32.3,39.5,32.3z"/>
</svg>
